SplineFontDB: 3.0
FontName: Renner*-Bold
FullName: Renner* Bold
FamilyName: Renner*
Weight: Bold
Copyright: This typeface is licensed under the SIL open font license.
UComments: "2015-9-7: Created with FontForge (http://fontforge.org)"
FontLog: "This is version 1. Font is original (not based on another digital typeface). Inspiration was taken from the American Type Founders +ACIA-Spartan+ACIA, but Renner* is not identical. No updates have been made yet."
Version: 001.000
ItalicAngle: 0
UnderlinePosition: -200
UnderlineWidth: 50
Ascent: 800
Descent: 200
InvalidEm: 0
LayerCount: 2
Layer: 0 0 "Back" 1
Layer: 1 0 "Fore" 0
XUID: [1021 266 -223186452 810138]
FSType: 0
OS2Version: 0
OS2_WeightWidthSlopeOnly: 0
OS2_UseTypoMetrics: 0
CreationTime: 1441634143
ModificationTime: 1452978971
PfmFamily: 17
TTFWeight: 700
TTFWidth: 5
LineGap: 100
VLineGap: 0
OS2TypoAscent: 800
OS2TypoAOffset: 0
OS2TypoDescent: -200
OS2TypoDOffset: 0
OS2TypoLinegap: 100
OS2WinAscent: 900
OS2WinAOffset: 0
OS2WinDescent: 300
OS2WinDOffset: 0
HheadAscent: 900
HheadAOffset: 0
HheadDescent: -200
HheadDOffset: 0
OS2CapHeight: 730
OS2XHeight: 526
OS2Vendor: 'PfEd'
Lookup: 258 0 0 "Pairwise Positioning (kerning) in Latin lookup 0" { "Pairwise Positioning (kerning) in Latin lookup 0-1" [140,0,0] } ['kern' ('DFLT' <'dflt' > 'latn' <'dflt' > ) ]
MarkAttachClasses: 1
DEI: 91125
KernClass2: 11 13 "Pairwise Positioning (kerning) in Latin lookup 0-1"
 1 A
 7 D O Q G
 9 F V P Y W
 7 b e o p
 3 K X
 1 T
 19 a c g h i j m n q u
 3 k x
 7 r v y w
 1 s
 1 A
 7 C G O Q
 1 T
 3 V W
 3 X Y
 11 c d e g o q
 3 i j
 13 a m n p r u z
 1 s
 5 v w y
 1 x
 1 U

StartChar: I
Encoding: 73 73 0
Width: 296
VWidth: 0
Flags: HW
HStem: 0 21G<80 216> 710 20G<80 216>
VStem: 80 136<0 730>
LayerCount: 2
Fore
SplineSet
80 0 m 1
 80 730 l 1
 216 730 l 5
 216 0 l 5
 80 0 l 1
EndSplineSet
EndChar

StartChar: t
Encoding: 116 116 1
Width: 319
VWidth: 0
Flags: W
HStem: 0 21G<88 225> 395 131<10 303>
VStem: 88 137<0 700>
LayerCount: 2
Fore
SplineSet
10 395 m 5
 10 526 l 1
 303 526 l 1
 303 395 l 5
 10 395 l 5
88 0 m 1
 88 700 l 1
 225 700 l 1
 225 0 l 1
 88 0 l 1
EndSplineSet
EndChar

StartChar: l
Encoding: 108 108 2
Width: 321
VWidth: 0
Flags: W
HStem: 0 21G<70 207> 874 20G<70 207>
VStem: 70 137<0 894>
LayerCount: 2
Fore
SplineSet
70 0 m 1
 70 894 l 5
 207 894 l 5
 207 0 l 1
 70 0 l 1
EndSplineSet
EndChar

StartChar: i
Encoding: 105 105 3
Width: 355
VWidth: 0
Flags: HW
HStem: 0 21G<88 224> 506 20G<88 224> 641 171<99.5147 212.055>
VStem: 70 171<670.515 783.055> 88 136<0 526>
LayerCount: 2
Fore
SplineSet
70 727 m 4xf0
 70 775 108 812 156 812 c 4
 204 812 241 775 241 727 c 4
 241 679 204 641 156 641 c 4
 108 641 70 679 70 727 c 4xf0
88 0 m 1xe8
 88 526 l 1
 224 526 l 1
 224 0 l 1
 88 0 l 1xe8
EndSplineSet
EndChar

StartChar: o
Encoding: 111 111 4
Width: 630
VWidth: 0
Flags: HW
HStem: -12 131<235.411 374.589> 407 131<235.411 374.589>
VStem: 30 138<187.044 338.956> 442 138<187.044 338.956>
LayerCount: 2
Fore
SplineSet
168 263 m 4
 168 185 230 119 305 119 c 4
 380 119 442 185 442 263 c 4
 442 341 380 407 305 407 c 4
 230 407 168 341 168 263 c 4
30 263 m 0
 30 414 154 538 305 538 c 0
 456 538 580 414 580 263 c 0
 580 112 456 -12 305 -12 c 0
 154 -12 30 112 30 263 c 0
EndSplineSet
EndChar

StartChar: H
Encoding: 72 72 6
Width: 756
VWidth: 0
Flags: HW
HStem: 0 21G<80 216 540 676> 302 131<204 561> 710 20G<80 216 540 676>
VStem: 80 136<0 302 433 730> 204 12<302 433> 540 136<0 302 433 730> 540 21<302 433>
LayerCount: 2
Fore
SplineSet
204 302 m 5xea
 204 433 l 1
 561 433 l 1
 561 302 l 5
 204 302 l 5xea
540 0 m 1xe4
 540 730 l 1
 676 730 l 1
 676 0 l 1
 540 0 l 1xe4
80 0 m 1xf0
 80 730 l 1
 216 730 l 1
 216 0 l 1
 80 0 l 1xf0
EndSplineSet
EndChar

StartChar: E
Encoding: 69 69 7
Width: 623
VWidth: 0
Flags: W
HStem: 0 131<194 573> 311 125<194 465> 599 131<194 573>
VStem: 194 12<0 131 311 436 599 730>
LayerCount: 2
Fore
SplineSet
194 0 m 1
 194 131 l 1
 573 131 l 1
 573 0 l 1
 194 0 l 1
194 599 m 1
 194 730 l 1
 573 730 l 1
 573 599 l 1
 194 599 l 1
194 311 m 1
 194 436 l 5
 465 436 l 5
 465 311 l 1
 194 311 l 1
70 0 m 1
 70 730 l 1
 206 730 l 1
 206 0 l 1
 70 0 l 1
EndSplineSet
EndChar

StartChar: F
Encoding: 70 70 8
Width: 601
VWidth: 0
Flags: W
HStem: 0 21G<70 206> 314 119<194 443> 610 120<194 551>
VStem: 70 136<0 314 433 610> 194 12<314 433 610 730>
LayerCount: 2
Fore
SplineSet
194 610 m 5xe8
 194 730 l 1
 551 730 l 1
 551 610 l 5
 194 610 l 5xe8
194 314 m 1
 194 433 l 1
 443 433 l 1
 443 314 l 1
 194 314 l 1
70 0 m 1xf0
 70 730 l 1xf0
 206 730 l 1xe8
 206 0 l 1
 70 0 l 1xf0
EndSplineSet
EndChar

StartChar: M
Encoding: 77 77 9
Width: 855
VWidth: 0
Flags: HW
HStem: 0 21G<80 216 638 775> 737 20G<80 98.2692 756.731 775>
VStem: 80 136<0 559> 638 137<0 600>
LayerCount: 2
Fore
SplineSet
427 194 m 5
 395 341 l 1
 775 757 l 1
 775 559 l 5
 427 194 l 5
775 0 m 1
 638 0 l 1
 638 600 l 1
 775 757 l 1
 775 0 l 1
427 194 m 1
 80 559 l 1
 80 757 l 1
 460 341 l 1
 427 194 l 1
80 0 m 1
 80 757 l 1
 216 600 l 1
 216 0 l 1
 80 0 l 1
EndSplineSet
EndChar

StartChar: N
Encoding: 78 78 10
Width: 810
VWidth: 0
Flags: HW
HStem: 0 21G<80 217 708.583 730> 730 7G<80 101.575 594 730>
VStem: 80 137<0 577> 594 136<127 730>
LayerCount: 2
Fore
SplineSet
730 -27 m 1
 80 577 l 1
 80 757 l 1
 730 153 l 1
 730 -27 l 1
594 127 m 5
 594 730 l 1
 730 730 l 1
 730 0 l 1
 594 127 l 5
80 0 m 1
 80 730 l 1
 217 603 l 1
 217 0 l 1
 80 0 l 1
EndSplineSet
EndChar

StartChar: O
Encoding: 79 79 11
Width: 813
VWidth: 0
Flags: HW
HStem: -11 137<314.365 517.659> 606 136<305.743 509.089>
VStem: 30 142<267.941 468.513> 652 131<263.448 464.027>
LayerCount: 2
Fore
SplineSet
172 366 m 4
 172 226 281 126 417 126 c 4
 553 126 652 226 652 366 c 4
 652 506 543 606 407 606 c 4
 271 606 172 506 172 366 c 4
30 366 m 4
 30 574 199 742 407 742 c 4
 615 742 783 574 783 366 c 4
 783 158 615 -11 407 -11 c 4
 199 -11 30 158 30 366 c 4
EndSplineSet
EndChar

StartChar: T
Encoding: 84 84 12
Width: 600
VWidth: 0
Flags: HW
HStem: 0 21G<232 368> 599 131<10 232 368 590> 599 43<232 368>
VStem: 232 136<0 642>
LayerCount: 2
Fore
SplineSet
10 599 m 5xd0
 10 730 l 1
 590 730 l 1
 590 599 l 5
 10 599 l 5xd0
232 0 m 1
 232 642 l 5
 368 642 l 5xb0
 368 0 l 1
 232 0 l 1
EndSplineSet
EndChar

StartChar: A
Encoding: 65 65 13
Width: 712
VWidth: 0
Flags: W
HStem: 0 21G<10 160.469 551.521 702> 152 129<188 545> 737 20G<346.859 365.141>
LayerCount: 2
Fore
SplineSet
10 0 m 1
 356 757 l 1
 412 614 l 1
 152 0 l 1
 10 0 l 1
188 152 m 5
 188 281 l 1
 545 281 l 1
 545 152 l 5
 188 152 l 5
560 0 m 1
 298 618 l 1
 356 757 l 1
 702 0 l 1
 560 0 l 1
EndSplineSet
EndChar

StartChar: c
Encoding: 99 99 14
Width: 542
VWidth: 0
Flags: HW
HStem: -12 131<235.586 415.207> 407 130<235.586 415.207>
VStem: 35 138<185.593 340.368>
LayerCount: 2
Fore
SplineSet
173 263 m 4
 173 185 228 119 310 119 c 4
 366 119 425 136 466 172 c 5
 466 24 l 5
 418 0 364 -12 310 -12 c 4
 159 -12 35 112 35 263 c 4
 35 414 159 537 310 537 c 4
 364 537 418 526 466 502 c 5
 466 354 l 5
 425 390 366 407 310 407 c 4
 228 407 173 341 173 263 c 4
EndSplineSet
EndChar

StartChar: C
Encoding: 67 67 15
Width: 685
VWidth: 0
Flags: HW
HStem: -11 137<310.88 533.096> 539 21G<586.5 615> 606 135<311.095 531.484>
VStem: 30 142<264.737 462.705>
LayerCount: 2
Fore
SplineSet
172 366 m 0
 172 232 274 126 407 126 c 4
 484 126 558 148 615 192 c 1
 615 47 l 1
 552 10 481 -11 407 -11 c 0
 199 -11 30 158 30 366 c 0
 30 574 199 741 407 741 c 0
 481 741 552 721 615 684 c 1
 615 539 l 1
 558 583 484 606 407 606 c 4
 275 606 172 500 172 366 c 0
EndSplineSet
EndChar

StartChar: G
Encoding: 71 71 16
Width: 822
VWidth: 0
Flags: HW
HStem: -11 137<301.83 510.542> 281 125<434 751> 532 21G<565.5 604.832> 606 136<301.83 510.557>
VStem: 30 142<259.912 472.048>
LayerCount: 2
Fore
SplineSet
434 281 m 5
 434 406 l 1
 761 406 l 1
 751 281 l 5
 434 281 l 5
172 366 m 0
 172 222 265 126 407 126 c 0
 549 126 630 222 630 366 c 0
 630 372 630 400 630 406 c 1
 771 406 l 1
 771 400 772 372 772 366 c 0
 772 158 615 -11 407 -11 c 0
 199 -11 30 158 30 366 c 0
 30 574 199 742 407 742 c 0
 507 742 598 703 665 639 c 1
 591 532 l 1
 540 580 473 606 407 606 c 0
 265 606 172 510 172 366 c 0
EndSplineSet
EndChar

StartChar: J
Encoding: 74 74 17
Width: 536
VWidth: 0
Flags: HW
HStem: -11 131<120.228 286.12> 710 20G<320 456>
VStem: 320 136<157.839 730>
LayerCount: 2
Fore
SplineSet
320 249 m 1
 320 730 l 1
 456 730 l 1
 456 249 l 1
 320 249 l 1
320 249 m 1
 456 249 l 1
 456 101 366 -11 202 -11 c 0
 74 -11 -4 54 -30 134 c 1
 58 210 l 1
 83 165 121 120 202 120 c 0
 303 120 320 167 320 249 c 1
EndSplineSet
EndChar

StartChar: b
Encoding: 98 98 18
Width: 688
VWidth: 0
Flags: W
HStem: -12 131<280.03 417.025> 0 21G<70 207> 407 131<280.03 417.025> 874 20G<70 207>
VStem: 70 137<263 894> 151 56<142 384> 482 138<185.593 340.407>
LayerCount: 2
Fore
SplineSet
70 0 m 1x7a
 70 894 l 5
 207 894 l 5x7a
 207 0 l 1x76
 70 0 l 1x7a
207 263 m 0
 207 185 263 119 345 119 c 0xba
 427 119 482 185 482 263 c 0
 482 341 427 407 345 407 c 0
 263 407 207 341 207 263 c 0
151 263 m 0xb6
 151 384 217 538 367 538 c 0
 497 538 620 414 620 263 c 0
 620 112 497 -12 367 -12 c 0
 217 -12 151 142 151 263 c 0xb6
EndSplineSet
EndChar

StartChar: u
Encoding: 117 117 19
Width: 698
VWidth: 0
Flags: W
HStem: -12 131<239.516 363.969> 0 21G<446 584> 506 20G<70 207 446 584>
VStem: 70 137<150.036 526> 446 138<263 526> 446 44<171 263>
LayerCount: 2
Fore
SplineSet
584 526 m 1x78
 584 0 l 1x78
 446 0 l 1x74
 446 526 l 1
 584 526 l 1x78
207 203 m 1
 70 203 l 1
 70 526 l 1
 207 526 l 1
 207 203 l 1
207 203 m 1
 207 154 252 119 309 119 c 0
 396 119 446 160 446 263 c 1xb8
 490 263 l 5
 490 171 443 -12 277 -12 c 0xb4
 157 -12 70 69 70 203 c 1
 207 203 l 1
EndSplineSet
EndChar

StartChar: d
Encoding: 100 100 20
Width: 689
VWidth: 0
Flags: HW
HStem: -12 131<237.975 374.97> 0 21G<448 586> 407 131<237.975 374.97> 874 20G<448 586>
VStem: 35 138<185.593 340.407> 448 138<263 894> 448 56<142 384>
LayerCount: 2
Fore
SplineSet
448 263 m 0xbc
 448 341 392 407 310 407 c 0
 228 407 173 341 173 263 c 0
 173 185 228 119 310 119 c 0
 392 119 448 185 448 263 c 0xbc
504 263 m 0xba
 504 142 438 -12 288 -12 c 0
 158 -12 35 112 35 263 c 0
 35 414 158 538 288 538 c 0
 438 538 504 384 504 263 c 0xba
586 0 m 1x7c
 448 0 l 1x7a
 448 894 l 5
 586 894 l 5
 586 0 l 1x7c
EndSplineSet
EndChar

StartChar: e
Encoding: 101 101 21
Width: 630
VWidth: 0
Flags: HW
HStem: -12 131<235.586 402.723> 221 102<88 434 436 520> 239 24<35.125 149.125> 407 131<235.586 379.247>
VStem: 88 85<251.75 323> 436 84<255 323>
LayerCount: 2
Fore
SplineSet
173 263 m 1xbc
 173 185 228 119 310 119 c 0
 397 119 445 169 445 169 c 1
 526 75 l 1
 469 22 390 -12 310 -12 c 0
 159 -12 35 112 35 263 c 1
 173 263 l 1xbc
35 263 m 0
 35 414 159 538 310 538 c 0
 461 538 573 414 573 263 c 0xbc
 573 243 569 221 569 221 c 5
 434 221 l 5xdc
 435 229 436 255 436 263 c 0
 436 341 392 407 310 407 c 0
 228 407 173 341 173 263 c 0
 173 255 125 247 126 239 c 1
 36 239 l 1
 35 247 35 255 35 263 c 0
88 221 m 1xdc
 88 323 l 1
 520 323 l 1
 520 221 l 1
 88 221 l 1xdc
EndSplineSet
EndChar

StartChar: a
Encoding: 97 97 22
Width: 591
VWidth: 0
Flags: HW
HStem: -12 131<164.852 299.188> 0 21G<355 493> 235 78<171.747 408> 407 131<135.976 332.116>
VStem: 20 132<132.521 216.411> 87 156<407 505.296> 355 138<191 235 313 382.195> 355 53<235 313> 355 37<111 191>
LayerCount: 2
Fore
SplineSet
248 235 m 1x31
 248 313 l 1
 408 313 l 1
 408 235 l 1
 248 235 l 1x31
152 172 m 5x38
 20 162 l 5
 20 271 114 313 248 313 c 1
 248 235 l 1
 187 235 152 215 152 172 c 5x38
152 172 m 5
 152 129 187 119 236 119 c 1
 224 -12 l 1xb8
 102 -12 20 53 20 162 c 5
 152 172 l 5
355 216 m 1xb2
 392 191 l 1xb080
 392 111 340 -12 224 -12 c 1
 236 119 l 1
 285 119 355 129 355 216 c 1xb2
243 407 m 1x34
 199 407 128 391 87 359 c 1
 87 502 l 1
 135 526 189 538 243 538 c 1
 243 407 l 1x34
355 335 m 1x72
 493 335 l 1
 493 0 l 1x72
 355 0 l 1x7080
 355 335 l 1x72
243 407 m 1x36
 243 538 l 1
 377 538 493 469 493 335 c 1
 355 335 l 1
 355 384 318 407 243 407 c 1x36
EndSplineSet
EndChar

StartChar: h
Encoding: 104 104 23
Width: 722
VWidth: 0
Flags: W
HStem: 0 21G<70 207 470 608> 407 131<273.134 426.608> 874 20G<70 207>
VStem: 70 137<0 894> 162 45<263 385> 470 138<0 362.672>
LayerCount: 2
Fore
SplineSet
470 311 m 1xe4
 608 311 l 1
 608 0 l 1
 470 0 l 1
 470 311 l 1xe4
70 0 m 1xf4
 70 894 l 5
 207 894 l 5
 207 0 l 1
 70 0 l 1xf4
470 311 m 1
 470 360 420 407 357 407 c 0
 264 407 207 366 207 263 c 1xf4
 162 263 l 1xec
 162 385 211 538 357 538 c 0
 497 538 608 457 608 311 c 1
 470 311 l 1
EndSplineSet
EndChar

StartChar: m
Encoding: 109 109 24
Width: 1028
VWidth: 0
Flags: W
HStem: 0 323<424 500 776 914> 263 60<500 561> 407 131<273.942 396.546 610.726 742.152> 506 20G<70 208>
VStem: 70 138<0 526> 174 34<263 375> 424 137<0 366> 500 49<323 375> 776 138<0 370.711>
LayerCount: 2
Fore
SplineSet
776 323 m 1x8080
 914 323 l 1
 914 0 l 1
 776 0 l 1
 776 323 l 1x8080
776 323 m 1
 776 372 729 407 680 407 c 0
 613 407 561 366 561 263 c 1x6280
 500 263 l 5
 500 375 531 538 700 538 c 0x6180
 812 538 914 457 914 323 c 1
 776 323 l 1
70 0 m 1x9880
 70 526 l 1
 208 526 l 1
 208 0 l 1
 70 0 l 1x9880
424 323 m 1x8280
 561 323 l 1x4280
 561 0 l 1
 424 0 l 1
 424 323 l 1x8280
424 323 m 1x8280
 424 384 377 407 328 407 c 0
 250 407 208 366 208 263 c 1x6a80
 174 263 l 5
 174 375 203 538 360 538 c 0
 472 538 549 457 549 323 c 1x6580
 424 323 l 1x8280
EndSplineSet
EndChar

StartChar: n
Encoding: 110 110 25
Width: 697
VWidth: 0
Flags: W
HStem: 0 21G<70 207 446 583> 407 131<288.245 411.602> 506 20G<70 207>
VStem: 70 137<0 526> 162 45<263 366> 446 137<0 375.964>
LayerCount: 2
Fore
SplineSet
70 0 m 1xb4
 70 526 l 1
 207 526 l 1
 207 0 l 1
 70 0 l 1xb4
446 323 m 1
 583 323 l 1
 583 0 l 1
 446 0 l 1
 446 323 l 1
446 323 m 1
 446 372 402 407 345 407 c 0
 258 407 207 366 207 263 c 1xd4
 162 263 l 5
 162 366 211 538 377 538 c 0xcc
 497 538 583 457 583 323 c 1
 446 323 l 1
EndSplineSet
EndChar

StartChar: y
Encoding: 121 121 26
Width: 506
VWidth: 0
Flags: HW
HStem: 506 20G<0 144.429 363.562 506>
LayerCount: 2
Fore
SplineSet
29 -287 m 5
 372 526 l 1
 506 526 l 1
 164 -287 l 5
 29 -287 l 5
204 48 m 1
 0 526 l 1
 136 526 l 1
 313 106 l 1
 204 48 l 1
EndSplineSet
EndChar

StartChar: q
Encoding: 113 113 27
Width: 684
VWidth: 0
Flags: HW
HStem: -12 131<232.975 369.97> 407 131<232.975 369.97> 506 20G<444 582>
VStem: 30 138<185.593 340.407> 444 138<-275 526> 444 55<142 384>
LayerCount: 2
Fore
SplineSet
443 263 m 0xd0
 443 341 387 407 305 407 c 0
 223 407 168 341 168 263 c 0
 168 185 223 119 305 119 c 0
 387 119 443 185 443 263 c 0xd0
499 263 m 0xd4
 499 142 433 -12 283 -12 c 0
 153 -12 30 112 30 263 c 0
 30 414 153 538 283 538 c 0
 433 538 499 384 499 263 c 0xd4
582 526 m 1xb8
 582 -275 l 1
 444 -275 l 1
 444 526 l 1
 582 526 l 1xb8
EndSplineSet
EndChar

StartChar: p
Encoding: 112 112 28
Width: 682
VWidth: 0
Flags: W
HStem: -12 131<280.03 417.025> 407 131<280.03 417.025> 506 20G<70 207>
VStem: 70 137<-275 526> 151 56<142 384> 482 138<185.593 340.407>
LayerCount: 2
Fore
SplineSet
151 263 m 0xcc
 151 384 217 538 367 538 c 0
 497 538 620 414 620 263 c 0
 620 112 497 -12 367 -12 c 0
 217 -12 151 142 151 263 c 0xcc
70 526 m 1xb4
 207 526 l 1
 207 -275 l 1
 70 -275 l 1
 70 526 l 1xb4
207 263 m 0
 207 185 263 119 345 119 c 0
 427 119 482 185 482 263 c 0
 482 341 427 407 345 407 c 0xd4
 263 407 207 341 207 263 c 0
EndSplineSet
EndChar

StartChar: j
Encoding: 106 106 29
Width: 308
VWidth: 0
Flags: HW
HStem: -239 132<-53.4326 68.5823> 506 20G<85 222> 641 171<98.5147 211.485>
VStem: -76 90<-161.353 -107> 69 172<670.515 783.055> 85 137<-89.2315 526>
LayerCount: 2
Fore
SplineSet
14 -107 m 1xf0
 31 -239 l 1
 -35 -239 -76 -202 -76 -202 c 1
 -76 -78 l 1
 -76 -78 -42 -107 14 -107 c 1xf0
14 -107 m 1
 59 -107 85 -85 85 -24 c 1
 222 -48 l 1xf4
 222 -182 135 -239 31 -239 c 1
 14 -107 l 1
69 727 m 0xf8
 69 775 107 812 155 812 c 0
 203 812 241 775 241 727 c 0
 241 679 203 641 155 641 c 0
 107 641 69 679 69 727 c 0xf8
85 -48 m 1xf4
 85 526 l 1
 222 526 l 1
 222 -48 l 1
 85 -48 l 1xf4
EndSplineSet
EndChar

StartChar: L
Encoding: 76 76 30
Width: 583
VWidth: 0
Flags: W
HStem: 0 131<194 573> 710 20G<70 206>
VStem: 70 136<131 730> 194 12<0 131>
LayerCount: 2
Fore
SplineSet
194 0 m 1xd0
 194 131 l 5
 573 131 l 5
 573 0 l 1
 194 0 l 1xd0
70 0 m 1xe0
 70 730 l 1
 206 730 l 1xe0
 206 0 l 1xd0
 70 0 l 1xe0
EndSplineSet
EndChar

StartChar: D
Encoding: 68 68 31
Width: 755
VWidth: 0
Flags: W
HStem: 0 136<194 445.206> 594 136<194 450.03>
VStem: 70 268<0 136 594 730> 194 12<0 136 594 730> 573 142<261.308 470.421>
LayerCount: 2
Fore
SplineSet
194 730 m 1xd8
 338 730 l 1
 338 594 l 1xe8
 194 594 l 1
 194 730 l 1xd8
194 0 m 1xd8
 194 136 l 1xd8
 338 136 l 1
 338 0 l 1xe8
 194 0 l 1xd8
70 0 m 1xe8
 70 730 l 1xe8
 206 730 l 1
 206 0 l 1xd8
 70 0 l 1xe8
338 594 m 1
 338 730 l 1
 546 730 715 574 715 366 c 0
 715 158 546 0 338 0 c 1
 338 136 l 1
 480 136 573 222 573 366 c 4
 573 510 480 594 338 594 c 1
EndSplineSet
EndChar

StartChar: R
Encoding: 82 82 32
Width: 647
VWidth: 0
Flags: W
HStem: 0 21G<70 206 432.111 607> 244 131<167 221 335 399> 244 80<221 382> 599 131<184 407.021>
VStem: 70 136<0 244 375 599> 167 39<244 375> 184 22<599 730> 440 136<416.366 565.088>
LayerCount: 2
Fore
SplineSet
347 730 m 1xd1
 485 730 576 628 576 490 c 0
 576 352 485 244 347 244 c 1
 335 375 l 1
 399 375 440 421 440 490 c 0
 440 559 410 599 335 599 c 1
 347 730 l 1xd1
167 244 m 1xd5
 167 375 l 1
 335 375 l 1
 347 244 l 1
 167 244 l 1xd5
184 599 m 1x93
 184 730 l 1
 347 730 l 1
 335 599 l 1
 184 599 l 1x93
446 0 m 5
 221 324 l 5
 382 324 l 5xb1
 607 0 l 5
 446 0 l 5
70 0 m 1x99
 70 730 l 1x99
 206 730 l 1x93
 206 0 l 1
 70 0 l 1x99
EndSplineSet
EndChar

StartChar: V
Encoding: 86 86 33
Width: 669
VWidth: 0
Flags: W
HStem: 710 20G<10 165.061 503.918 659>
LayerCount: 2
Fore
SplineSet
659 730 m 1
 334 -27 l 1
 276 146 l 1
 512 730 l 1
 659 730 l 1
157 730 m 1
 394 142 l 5
 334 -27 l 1
 10 730 l 1
 157 730 l 1
EndSplineSet
EndChar

StartChar: f
Encoding: 102 102 34
Width: 401
VWidth: 0
Flags: HW
HStem: 0 21G<110 247> 395 131<20 385> 746 21G<408 408> 775 131<267.577 385.797>
VStem: 110 137<0 756.231>
LayerCount: 2
Fore
SplineSet
20 395 m 1
 20 526 l 1
 385 526 l 1
 385 395 l 1
 20 395 l 1
110 0 m 1
 110 715 l 5
 247 692 l 5
 247 0 l 1
 110 0 l 1
319 775 m 5
 301 906 l 5
 367 906 408 870 408 870 c 5
 408 746 l 5
 408 746 375 775 319 775 c 5
319 775 m 5
 274 775 247 753 247 692 c 5
 110 715 l 5
 110 849 197 906 301 906 c 5
 319 775 l 5
EndSplineSet
EndChar

StartChar: r
Encoding: 114 114 35
Width: 493
VWidth: 0
Flags: W
HStem: 0 21G<70 207> 407 131<253.132 402.082> 506 20G<70 207>
VStem: 70 137<0 526> 162 45<287 409>
LayerCount: 2
Fore
SplineSet
471 479 m 1xc8
 430 361 l 5
 430 361 397 407 320 407 c 4
 238 407 207 342 207 239 c 5xd0
 162 287 l 1
 162 409 192 538 320 538 c 0
 426 538 471 479 471 479 c 1xc8
207 526 m 1xb0
 207 0 l 1
 70 0 l 1
 70 526 l 1
 207 526 l 1xb0
EndSplineSet
EndChar

StartChar: g
Encoding: 103 103 36
Width: 658
VWidth: 0
Flags: HW
HStem: -287 131<208.249 377.27> -32 20G<418 556> -12 21G<418 556> 24 132<223.406 366.552> 407 131<222.03 365.329> 506 20G<418 556>
VStem: 30 137<212.81 354.993> 418 138<-112.474 -12 281 526> 418 56<153 409>
LayerCount: 2
Fore
SplineSet
418 -12 m 1xd3
 556 -12 l 1
 556 -163 474 -287 293 -287 c 0
 152 -287 71 -215 42 -127 c 1
 164 -75 l 1
 185 -125 216 -156 293 -156 c 0
 405 -156 418 -90 418 -12 c 1xd3
556 -12 m 5
 418 -12 l 5
 418 526 l 1
 556 526 l 1xd7
 556 -12 l 5
418 281 m 0
 418 354 368 407 293 407 c 0x9b
 218 407 167 354 167 281 c 0
 167 208 230 156 293 156 c 0
 368 156 418 208 418 281 c 0
474 281 m 0x9a80
 474 153 432 24 281 24 c 0
 141 24 30 130 30 281 c 0
 30 432 141 538 281 538 c 0
 432 538 474 409 474 281 c 0x9a80
EndSplineSet
EndChar

StartChar: period
Encoding: 46 46 37
Width: 307
VWidth: 0
Flags: W
HStem: -11 156<100.215 207.309>
VStem: 76 155<13.2149 120.785>
LayerCount: 2
Fore
SplineSet
76 67 m 4
 76 110 111 145 154 145 c 4
 197 145 231 110 231 67 c 4
 231 24 197 -11 154 -11 c 4
 111 -11 76 24 76 67 c 4
EndSplineSet
EndChar

StartChar: s
Encoding: 115 115 38
Width: 498
VWidth: 0
Flags: HW
HStem: -12 130<172.548 304.839> 410 128<194.903 334.708>
VStem: 54 139<355.732 400.51> 311 137<127.729 183.692>
LayerCount: 2
Fore
SplineSet
54 377 m 1
 54 481 141 538 257 538 c 0
 347 538 431 477 431 477 c 1
 377 357 l 1
 377 357 332 410 251 410 c 0
 211 410 193 396 193 381 c 1
 54 377 l 1
448 167 m 5
 448 39 367 -12 251 -12 c 0
 113 -12 30 84 30 84 c 1
 95 198 l 1
 95 198 171 118 245 118 c 0
 299 118 311 137 311 156 c 1
 448 167 l 5
240 202 m 0
 164 215 54 259 54 377 c 1
 193 381 l 1
 193 368 194 352 259 338 c 0
 344 320 448 290 448 167 c 5
 311 156 l 1
 311 168 305 191 240 202 c 0
EndSplineSet
EndChar

StartChar: k
Encoding: 107 107 39
Width: 575
VWidth: 0
Flags: W
HStem: 0 21G<70 207 353.436 553> 506 20G<335.021 528> 874 20G<70 207>
VStem: 70 137<0 894>
LayerCount: 2
Fore
SplineSet
368 0 m 1
 159 287 l 1
 344 287 l 1
 553 0 l 1
 368 0 l 1
171 287 m 1
 350 526 l 1
 528 526 l 1
 344 287 l 1
 171 287 l 1
70 0 m 1
 70 894 l 5
 207 894 l 5
 207 0 l 1
 70 0 l 1
EndSplineSet
EndChar

StartChar: v
Encoding: 118 118 40
Width: 559
VWidth: 0
Flags: HW
HStem: 506 20G<5 162.223 396.846 554>
LayerCount: 2
Fore
SplineSet
280 -30 m 1
 252 124 l 1
 222 124 l 5
 406 526 l 5
 554 526 l 1
 280 -30 l 1
280 -30 m 1
 5 526 l 1
 153 526 l 1
 337 127 l 1
 307 127 l 1
 280 -30 l 1
EndSplineSet
EndChar

StartChar: w
Encoding: 119 119 41
Width: 817
VWidth: 0
Flags: W
HStem: 506 20G<10 165.105 395.33 416.58 645.881 801>
LayerCount: 2
Fore
SplineSet
588 -30 m 1
 560 113 l 1
 506 113 l 1
 653 526 l 1
 801 526 l 1
 588 -30 l 1
588 -30 m 1
 345 414 l 5
 365 444 l 1
 406 546 l 1
 634 115 l 1
 615 91 l 1
 588 -30 l 1
223 -30 m 1
 207 88 l 1
 175 113 l 1
 406 546 l 1
 440 432 l 1
 460 402 l 1
 223 -30 l 1
223 -30 m 1
 10 526 l 1
 158 526 l 1
 304 115 l 1
 250 115 l 1
 223 -30 l 1
EndSplineSet
EndChar

StartChar: W
Encoding: 87 87 42
Width: 982
VWidth: 0
Flags: W
HStem: 710 20G<10 158.611 482.036 499.952 824.39 972>
LayerCount: 2
Fore
SplineSet
491 730 m 1
 743 167 l 1
 702 -27 l 1
 447 547 l 1
 491 730 l 1
972 730 m 1
 702 -27 l 1
 635 137 l 1
 831 730 l 5
 972 730 l 1
152 730 m 1
 349 134 l 1
 280 -27 l 1
 10 730 l 1
 152 730 l 1
541 544 m 1
 280 -27 l 1
 240 170 l 1
 491 730 l 1
 541 544 l 1
EndSplineSet
EndChar

StartChar: x
Encoding: 120 120 43
Width: 531
VWidth: 0
Flags: HW
HStem: 0 21G<0 167.789 362.211 531> 506 20G<0 167.789 362.211 531>
LayerCount: 2
Fore
SplineSet
265 161 m 5
 154 0 l 1
 0 0 l 1
 191 263 l 1
 0 526 l 1
 154 526 l 1
 265 365 l 1
 376 526 l 1
 531 526 l 1
 338 263 l 1
 531 0 l 1
 376 0 l 1
 265 161 l 5
EndSplineSet
EndChar

StartChar: z
Encoding: 122 122 44
Width: 504
VWidth: 0
Flags: HW
HStem: 0 132<99 458> 395 131<39 399>
LayerCount: 2
Fore
SplineSet
39 395 m 1
 39 526 l 1
 458 526 l 1
 399 395 l 1
 39 395 l 1
39 0 m 1
 99 132 l 1
 458 132 l 1
 458 0 l 1
 39 0 l 1
10 0 m 1
 340 526 l 5
 488 526 l 1
 158 0 l 1
 10 0 l 1
EndSplineSet
EndChar

StartChar: P
Encoding: 80 80 45
Width: 574
VWidth: 0
Flags: W
HStem: 0 21G<70 206> 244 131<167 370.308> 599 131<184 376.077>
VStem: 70 136<0 244 375 599> 167 39<244 375> 184 22<599 730> 408 136<410.172 565.371>
LayerCount: 2
Fore
SplineSet
315 730 m 1xe2
 453 730 544 628 544 490 c 0
 544 352 453 244 315 244 c 1
 303 375 l 1
 372 375 408 415 408 490 c 0
 408 565 372 599 303 599 c 1
 315 730 l 1xe2
167 244 m 1xea
 167 375 l 1
 315 375 l 1
 315 244 l 1
 167 244 l 1xea
70 0 m 1xf2
 70 730 l 1xf2
 206 730 l 1xe6
 206 0 l 1
 70 0 l 1xf2
184 599 m 1xe6
 184 730 l 1
 315 730 l 5
 315 599 l 5
 184 599 l 1xe6
EndSplineSet
EndChar

StartChar: exclam
Encoding: 33 33 46
Width: 307
VWidth: 0
Flags: W
HStem: -11 156<100.215 207.309>
VStem: 76 155<13.2149 120.785> 87 134<592.765 811> 103 101<281 499.235>
LayerCount: 2
Fore
SplineSet
76 67 m 4xc0
 76 110 111 145 154 145 c 4
 197 145 231 110 231 67 c 4
 231 24 197 -11 154 -11 c 4
 111 -11 76 24 76 67 c 4xc0
103 281 m 5x90
 87 811 l 5
 221 811 l 5xa0
 204 281 l 5
 103 281 l 5x90
EndSplineSet
EndChar

StartChar: B
Encoding: 66 66 47
Width: 622
VWidth: 0
Flags: W
HStem: 0 131<194 417.714> 309 131<194 369> 330 65<357 421> 600 130<194 377.293>
VStem: 194 12<0 131 309 440 600 730> 324 33<330 440> 397 134<465.514 582.468> 439 133<153.463 278.458>
LayerCount: 2
Fore
SplineSet
324 730 m 1xde
 443 730 531 647 531 539 c 0
 531 442 421 330 324 330 c 1xbe
 324 440 l 1
 369 440 397 483 397 528 c 0
 397 573 369 600 324 600 c 1
 324 730 l 1xde
194 600 m 1
 194 730 l 1
 324 730 l 1
 324 600 l 1
 194 600 l 1
194 309 m 1xdc
 194 440 l 1
 357 440 l 1
 357 309 l 1
 194 309 l 1xdc
70 0 m 1
 70 730 l 1
 206 730 l 1
 206 0 l 1
 70 0 l 1
194 0 m 1
 194 131 l 1
 357 131 l 1
 357 0 l 1
 194 0 l 1
357 395 m 1xbd
 460 395 572 334 572 211 c 4
 572 97 481 0 357 0 c 1
 357 131 l 1
 413 131 439 166 439 211 c 0
 439 256 413 309 357 309 c 1xdd
 357 395 l 1xbd
EndSplineSet
EndChar

StartChar: S
Encoding: 83 83 48
Width: 567
VWidth: 0
Flags: HW
HStem: -11 139<198.119 360.876> 514 20G<84 226> 530 21G<84 226> 608 133<253.179 407.836>
VStem: 84 142<477.035 580.552> 386 141<153.542 269.457>
LayerCount: 2
Fore
SplineSet
84 535 m 1xbc
 84 645 184 741 311 741 c 0
 441 741 511 664 511 664 c 1
 461 554 l 1
 461 554 399 608 316 608 c 0
 263 608 226 573 226 534 c 1xdc
 84 535 l 1xbc
527 199 m 5
 527 89 431 -11 294 -11 c 0
 137 -11 40 98 40 98 c 1
 107 205 l 1
 107 205 189 128 294 128 c 0
 354 128 386 161 386 211 c 1
 527 199 l 5
294 303 m 0
 183.071289062 322.412109375 84 401 84 535 c 1xbc
 226 534 l 1
 226 487 255 450 316 438 c 0
 433.959960938 414.794921875 527 337 527 199 c 5
 386 211 l 1
 386 250 374 289 294 303 c 0
EndSplineSet
EndChar

StartChar: Q
Encoding: 81 81 49
Width: 872
VWidth: 0
Flags: HW
HStem: -11 137<314.365 517.659> 0 21G<656.792 842> 606 136<305.743 509.089>
VStem: 30 142<267.941 468.513> 652 131<263.448 464.027>
LayerCount: 2
Fore
SplineSet
172 366 m 0xb8
 172 226 281 126 417 126 c 0
 553 126 652 226 652 366 c 0
 652 506 543 606 407 606 c 0
 271 606 172 506 172 366 c 0xb8
676 0 m 5x78
 385 303 l 5
 552 303 l 1
 842 0 l 1
 676 0 l 5x78
30 366 m 0
 30 574 199 742 407 742 c 0
 615 742 783 574 783 366 c 0
 783 158 615 -11 407 -11 c 0xb8
 199 -11 30 158 30 366 c 0
EndSplineSet
EndChar

StartChar: Z
Encoding: 90 90 50
Width: 647
VWidth: 0
Flags: HW
HStem: 0 131<91 600> 599 131<37 546>
LayerCount: 2
Fore
SplineSet
37 599 m 1
 37 730 l 1
 600 730 l 1
 546 599 l 1
 37 599 l 1
37 0 m 1
 91 131 l 1
 600 131 l 1
 600 0 l 1
 37 0 l 1
10 0 m 1
 467 730 l 5
 627 730 l 1
 170 0 l 1
 10 0 l 1
EndSplineSet
EndChar

StartChar: U
Encoding: 85 85 51
Width: 732
VWidth: 0
Flags: W
HStem: -11 130<289.898 441.996> 710 20G<70 206 525 662>
VStem: 70 136<207.015 730> 525 137<207.015 730>
LayerCount: 2
Fore
SplineSet
525 285 m 5
 525 730 l 1
 662 730 l 1
 662 279 l 1
 525 285 l 5
70 279 m 1
 70 730 l 1
 206 730 l 1
 206 285 l 5
 70 279 l 1
662 279 m 1
 662 98 514 -11 366 -11 c 0
 218 -11 70 98 70 279 c 1
 206 285 l 5
 206 204 269 119 366 119 c 4
 463 119 525 204 525 285 c 5
 662 279 l 1
EndSplineSet
EndChar

StartChar: Y
Encoding: 89 89 52
Width: 620
VWidth: 0
Flags: W
HStem: 0 21G<242 377> 710 20G<10 166.59 453.284 610>
VStem: 242 135<0 413>
LayerCount: 2
Fore
SplineSet
242 0 m 1
 242 413 l 1
 377 413 l 1
 377 0 l 1
 242 0 l 1
309 175 m 5
 10 730 l 1
 157 730 l 1
 309 413 l 1
 463 730 l 1
 610 730 l 1
 309 175 l 5
EndSplineSet
EndChar

StartChar: X
Encoding: 88 88 53
Width: 660
VWidth: 0
Flags: W
HStem: 0 21G<10 171.904 488.096 650> 710 20G<30 191.904 468.096 630>
LayerCount: 2
Fore
SplineSet
650 0 m 5
 501 0 l 5
 30 730 l 1
 179 730 l 1
 650 0 l 5
630 730 m 5
 159 0 l 1
 10 0 l 1
 481 730 l 5
 630 730 l 5
EndSplineSet
EndChar

StartChar: K
Encoding: 75 75 54
Width: 649
VWidth: 0
Flags: HW
HStem: 0 21G<80 216 459.046 649> 710 20G<80 216 465.224 649>
VStem: 80 136<0 730>
LayerCount: 2
Fore
SplineSet
200 351 m 1
 480 730 l 1
 649 730 l 1
 369 351 l 5
 200 351 l 1
475 0 m 1
 195 351 l 1
 369 351 l 5
 649 0 l 1
 475 0 l 1
80 0 m 1
 80 730 l 1
 216 730 l 1
 216 0 l 1
 80 0 l 1
EndSplineSet
EndChar

StartChar: comma
Encoding: 44 44 55
Width: 307
VWidth: 0
Flags: W
HStem: -110 212<97 123>
VStem: 22 209
LayerCount: 2
Fore
SplineSet
97 102 m 5
 231 102 l 5
 123 -110 l 5
 22 -110 l 5
 97 102 l 5
EndSplineSet
EndChar

StartChar: quotedbl
Encoding: 34 34 56
Width: 263
VWidth: 0
Flags: W
HStem: 599 212<32 102 162 231>
VStem: 32 70<599 691.75> 162 69<599 686.294>
LayerCount: 2
Fore
SplineSet
146 811 m 1
 248 811 l 1
 231 599 l 1
 162 599 l 1
 146 811 l 1
16 811 m 1
 118 811 l 1
 102 599 l 1
 32 599 l 1
 16 811 l 1
EndSplineSet
EndChar

StartChar: quotesingle
Encoding: 39 39 57
Width: 177
VWidth: 0
Flags: W
HStem: 599 212<35 136>
VStem: 35 101<599 673.2>
LayerCount: 2
Fore
SplineSet
22 811 m 1
 156 811 l 1
 136 599 l 5
 35 599 l 5
 22 811 l 1
EndSplineSet
EndChar

StartChar: colon
Encoding: 58 58 58
Width: 307
VWidth: 0
Flags: W
HStem: 50 155<100.215 207.309> 342 155<100.215 207.309>
VStem: 76 155<74.2149 181.309 366.215 473.309>
LayerCount: 2
Fore
SplineSet
76 420 m 4
 76 463 111 497 154 497 c 4
 197 497 231 463 231 420 c 4
 231 377 197 342 154 342 c 4
 111 342 76 377 76 420 c 4
76 128 m 0
 76 171 111 205 154 205 c 0
 197 205 231 171 231 128 c 0
 231 85 197 50 154 50 c 0
 111 50 76 85 76 128 c 0
EndSplineSet
EndChar

StartChar: semicolon
Encoding: 59 59 59
Width: 307
VWidth: 0
Flags: W
HStem: 342 155<100.215 207.309>
VStem: 76 155<366.215 473.309>
LayerCount: 2
Fore
SplineSet
97 162 m 1
 231 162 l 1
 123 -50 l 1
 22 -50 l 1
 97 162 l 1
76 420 m 0
 76 463 111 497 154 497 c 0
 197 497 231 463 231 420 c 0
 231 377 197 342 154 342 c 0
 111 342 76 377 76 420 c 0
EndSplineSet
EndChar

StartChar: dollar
Encoding: 36 36 60
Width: 573
VWidth: 0
Flags: W
HStem: -11 127<201.119 369.772> 526 20G<87 217> 539 21G<87 217> 620 121<253.64 410.836>
VStem: 87 130<481.414 585.961> 270 71<-108 811> 401 129<148.824 266.137>
LayerCount: 2
Fore
SplineSet
87 546 m 1xde
 87 656 187 741 314 741 c 0
 444 741 514 664 514 664 c 1
 464 566 l 1
 464 566 402 620 319 620 c 0
 256 620 217 578 217 539 c 1xbe
 87 546 l 1xde
530 189 m 1
 530 79 434 -11 297 -11 c 0
 140 -11 43 98 43 98 c 1
 110 193 l 1
 110 193 192 116 297 116 c 0
 367 116 401 155 401 205 c 1
 530 189 l 1
297 309 m 0
 186 328 87 412 87 546 c 1xde
 217 539 l 1
 217 496 248 446 319 432 c 0
 437 409 530 327 530 189 c 1
 401 205 l 1
 401 244 387 293 297 309 c 0
270 -108 m 1
 270 811 l 1
 341 811 l 1
 341 -108 l 1
 270 -108 l 1
EndSplineSet
EndChar

StartChar: zero
Encoding: 48 48 61
Width: 600
VWidth: 0
Flags: HW
HStem: -11 125<235.048 365.035> 618 124<235.048 365.035>
VStem: 32 130<214.157 517.746> 439 130<218.237 513.676>
LayerCount: 2
Fore
SplineSet
162 366 m 4
 162 276 180 114 300 114 c 4
 420 114 439 276 439 366 c 4
 439 456 420 618 300 618 c 4
 180 618 162 456 162 366 c 4
32 366 m 0
 32 552 114 742 300 742 c 0
 486 742 569 552 569 366 c 0
 569 180 486 -11 300 -11 c 0
 114 -11 32 180 32 366 c 0
EndSplineSet
EndChar

StartChar: one
Encoding: 49 49 62
Width: 600
VWidth: 0
Flags: HW
HStem: 0 21G<297 422> 726 20G<378.303 422>
VStem: 297 125<0 638>
LayerCount: 2
Fore
SplineSet
162 508 m 1
 162 627 l 1
 422 746 l 1
 422 600 l 1
 162 508 l 1
297 0 m 1
 297 638 l 1
 422 746 l 1
 422 0 l 1
 297 0 l 1
EndSplineSet
EndChar

StartChar: two
Encoding: 50 50 63
Width: 600
VWidth: 1081
Flags: HW
HStem: 0 121<303 578> 612 130<225.024 395.256>
VStem: 427 129<434.46 579.84>
LayerCount: 2
Fore
SplineSet
84 634 m 2
 85 636 182 742 308 742 c 1
 449 740 556 667 556 512 c 0
 556 429 492 346 455 301 c 2
 303 121 l 1
 578 121 l 1
 578 0 l 1
 46 0 l 1
 369 383 l 2
 403 424 427 460 427 509 c 0
 427 590 383 612 308 612 c 0
 191 612 94 484 81 469 c 1
 81 630 l 1
 84 634 l 2
EndSplineSet
EndChar

StartChar: percent
Encoding: 37 37 64
Width: 1138
VWidth: 0
Flags: W
HStem: -11 104<765.647 878.353> 0 21G<227 376.822> 283 104<765.647 878.353> 343 104<251.647 364.353> 637 104<251.647 364.353> 710 20G<753.178 903>
VStem: 109 108<480.997 603.003> 399 108<480.997 603.003> 623 108<126.997 249.003> 913 108<126.997 249.003>
LayerCount: 2
Fore
SplineSet
731 188 m 0xa3c0
 731 134 771 93 822 93 c 0
 873 93 913 134 913 188 c 0
 913 242 873 283 822 283 c 0
 771 283 731 242 731 188 c 0xa3c0
217 542 m 0
 217 488 257 447 308 447 c 0
 359 447 399 488 399 542 c 0
 399 596 359 637 308 637 c 0x1bc0
 257 637 217 596 217 542 c 0
623 188 m 0
 623 298 712 387 822 387 c 0
 932 387 1021 298 1021 188 c 0
 1021 78 932 -11 822 -11 c 0xa3c0
 712 -11 623 78 623 188 c 0
227 0 m 5x47c0
 768 730 l 1
 903 730 l 1
 362 0 l 5
 227 0 l 5x47c0
109 542 m 0
 109 652 198 741 308 741 c 0
 418 741 507 652 507 542 c 0
 507 432 418 343 308 343 c 0x1bc0
 198 343 109 432 109 542 c 0
EndSplineSet
EndChar

StartChar: three
Encoding: 51 51 65
Width: 600
VWidth: 0
Flags: HW
HStem: -11 118<132.73 321.73> 710 20G<84 516>
VStem: 372 123<158.425 300.94>
LayerCount: 2
Fore
SplineSet
84 611 m 1
 84 730 l 1
 516 730 l 1
 376 611 l 1
 84 611 l 1
241 465 m 1
 387 465 495 357 495 233 c 0
 495 98 398 -11 241 -11 c 1
 241 107 l 5
 313 107 372 144 372 233 c 4
 372 316 302 358 208 358 c 5
 241 465 l 1
143 358 m 1
 387 730 l 1
 516 730 l 1
 273 358 l 1
 143 358 l 1
241 -12 m 1
 192 -12 132 -1 89 21 c 1
 89 155 l 5
 126 122 190 107 241 107 c 5
 241 -12 l 1
EndSplineSet
EndChar

StartChar: four
Encoding: 52 52 66
Width: 600
VWidth: 0
Flags: HW
HStem: 0 21G<373.5 497.5> 141 119<162.5 568.5> 737 20G<482.403 497.5>
VStem: 373.5 124<0 587>
LayerCount: 2
Fore
SplineSet
32.5 141 m 1
 162.5 260 l 1
 568.5 260 l 1
 568.5 141 l 1
 32.5 141 l 1
373.5 0 m 1
 373.5 587 l 1
 497.5 631 l 1
 497.5 0 l 1
 373.5 0 l 1
497.5 599 m 1
 151.5 141 l 1
 32.5 141 l 1
 497.5 757 l 1
 497.5 599 l 1
EndSplineSet
EndChar

StartChar: five
Encoding: 53 53 67
Width: 600
VWidth: 0
Flags: HW
HStem: -11 119<132.21 346.844> 335 108<223.502 344.152> 611 119<146.5 486.5>
VStem: 400.5 124<155.172 282.366>
LayerCount: 2
Fore
SplineSet
146.5 730 m 1
 269.5 730 l 1
 215.5 389 l 1
 126.5 328 l 5
 92.5 389 l 1
 146.5 730 l 1
146.5 611 m 1
 146.5 730 l 1
 486.5 730 l 1
 486.5 611 l 1
 146.5 611 l 1
134.5 309 m 5
 93.5 388 l 1
 93.5 389 l 1
 93.5 389 183.5 443 275.5 443 c 0
 434.5 443 524.5 353 524.5 216 c 0
 524.5 79 413.5 -11 254.5 -11 c 0
 194.5 -11 118.5 6 75.5 28 c 1
 75.5 161 l 1
 112.5 128 192.5 108 254.5 108 c 4
 338.5 108 400.5 145 400.5 216 c 4
 400.5 287 339.5 335 265.5 335 c 4
 216.5 335 168.5 325 134.5 309 c 5
EndSplineSet
EndChar

StartChar: six
Encoding: 54 54 68
Width: 600
VWidth: 0
Flags: HW
HStem: -11 119<236.179 366.678> 324 109<282.223 364.825> 710 20G<285.392 434>
VStem: 73 119<152.179 277.574> 409 118<152.179 282.036>
LayerCount: 2
Fore
SplineSet
295 730 m 5
 434 730 l 5
 238 321 l 5
 99 322 l 5
 295 730 l 5
192 216 m 4
 192 154 238 108 300 108 c 4
 362 108 409 154 409 216 c 4
 409 278 362 324 300 324 c 4
 238 324 192 267 192 216 c 4
99 322 m 6
 295 730 l 5
 407 730 l 5
 255 412 l 5
 277 422 303 433 333 433 c 4
 426 433 527 341 527 216 c 4
 527 91 425 -11 300 -11 c 4
 175 -11 73 91 73 216 c 4
 73 254 83 287 99 322 c 6
EndSplineSet
EndChar

StartChar: nine
Encoding: 57 57 69
Width: 600
VWidth: 0
Flags: HW
HStem: 0 21G<166 315.608> 297 109<233.645 318.289> 622 119<236.179 366.678>
VStem: 73 119<447.964 577.821> 409 118<453.236 577.821>
LayerCount: 2
Fore
SplineSet
306 0 m 5
 166 0 l 5
 363 409 l 5
 502 408 l 5
 306 0 l 5
409 514 m 4
 409 576 362 622 300 622 c 4
 238 622 192 576 192 514 c 4
 192 452 238 406 300 406 c 4
 362 406 409 463 409 514 c 4
502 408 m 6
 306 0 l 5
 193 0 l 5
 346 318 l 5
 324 308 298 297 268 297 c 4
 175 297 73 389 73 514 c 4
 73 639 175 741 300 741 c 4
 425 741 527 639 527 514 c 4
 527 476 518 443 502 408 c 6
EndSplineSet
EndChar

StartChar: eight
Encoding: 56 56 70
Width: 600
VWidth: 0
Flags: HW
HStem: -11 125<236.179 366.724> 330 135<256 344> 368 70<216 384> 632 113<250.552 349.695>
VStem: 73 119<157.495 286.81> 109 114<492.665 605.286> 378 114<492.665 605.286> 409 119<157.943 287.062>
LayerCount: 2
Fore
SplineSet
109 548 m 0xb6
 109 654 194 745 300 745 c 0
 406 745 492 654 492 548 c 0
 492 447 384 368 300 368 c 0
 216 368 109 447 109 548 c 0xb6
223 548 m 4
 223 504 256 465 300 465 c 4xd6
 344 465 378 504 378 548 c 0
 378 592 344 632 300 632 c 0
 256 632 223 592 223 548 c 4
73 227 m 0xb9
 73 347 185 438 300 438 c 0
 415 438 528 342 528 222 c 0
 528 97 425 -11 300 -11 c 0
 175 -11 73 102 73 227 c 0xb9
192 222 m 0
 192 160 238 114 300 114 c 0
 362 114 409 160 409 222 c 0
 409 284 362 330 300 330 c 0xd9
 238 330 192 284 192 222 c 0
EndSplineSet
EndChar

StartChar: seven
Encoding: 55 55 71
Width: 600
VWidth: 0
Flags: HW
HStem: 0 21G<119 256.699> 611 119<70 465>
LayerCount: 2
Fore
SplineSet
70 611 m 1
 70 730 l 1
 530 730 l 1
 465 611 l 1
 70 611 l 1
119 0 m 5
 400 730 l 1
 530 730 l 1
 249 0 l 5
 119 0 l 5
EndSplineSet
EndChar

StartChar: numbersign
Encoding: 35 35 72
Width: 702
VWidth: 0
Flags: W
HStem: 184 119<21 123 276 377 530 633> 433 119<78 180 333 435 587 690> 732 20G<249.4 380 503.4 634>
LayerCount: 2
Fore
SplineSet
-7 184 m 1
 21 303 l 1
 150 303 l 1
 180 433 l 1
 51 433 l 1
 78 552 l 1
 208 552 l 1
 254 752 l 1
 380 752 l 1
 333 552 l 1
 462 552 l 1
 508 752 l 1
 634 752 l 1
 587 552 l 1
 717 552 l 1
 690 433 l 1
 560 433 l 1
 530 303 l 1
 660 303 l 1
 633 184 l 1
 503 184 l 1
 455 -22 l 1
 330 -22 l 1
 377 184 l 1
 249 184 l 1
 201 -22 l 1
 76 -22 l 1
 123 184 l 1
 -7 184 l 1
405 303 m 1
 435 433 l 1
 306 433 l 1
 276 303 l 1
 405 303 l 1
EndSplineSet
EndChar

StartChar: parenleft
Encoding: 40 40 73
Width: 250
VWidth: 0
Flags: HW
HStem: 709 20G<66.5 240>
LayerCount: 2
Fore
SplineSet
137 -194 m 5
 -4 81 -4 544 137 809 c 1
 240 804 l 1
 137 486 137 136 240 -188 c 5
 137 -194 l 5
EndSplineSet
EndChar

StartChar: parenright
Encoding: 41 41 74
Width: 249
VWidth: 0
Flags: HW
HStem: 709 20G<11 184.5>
LayerCount: 2
Fore
SplineSet
114 809 m 5
 255 534 255 71 114 -194 c 1
 11 -188 l 1
 114 130 114 480 11 804 c 5
 114 809 l 5
EndSplineSet
EndChar

StartChar: asterisk
Encoding: 42 42 75
Width: 394
VWidth: 0
Flags: W
HStem: 526 21G<244.789 284.429>
LayerCount: 2
Fore
SplineSet
137 884 m 1
 256 884 l 1
 247 773 l 1
 350 818 l 1
 386 705 l 1
 278 680 l 1
 353 596 l 1
 257 526 l 1
 199 621 l 1
 143 524 l 1
 47 594 l 1
 119 678 l 1
 9 702 l 1
 46 815 l 1
 149 772 l 1
 137 884 l 1
EndSplineSet
EndChar

StartChar: ampersand
Encoding: 38 38 76
Width: 872
VWidth: 0
Flags: W
HStem: -32 126<278.507 451.068> 714 119<362.918 486.544>
VStem: 99 130<139.836 257.417> 216 124<557.572 689.474> 502 123<591.214 698.902>
LayerCount: 2
Fore
SplineSet
635 279 m 1xd8
 724 396 l 1
 827 329 l 1
 730 201 l 1
 728 199 725 195 724 193 c 1
 798 120 l 1
 798 -50 l 1
 642 102 l 1
 561 25 466 -32 343 -32 c 0
 204 -32 99 76 99 196 c 0xe8
 99 287 161 361 244 417 c 1
 252 423 279 438 298 449 c 1
 254 497 216 554 216 639 c 0
 216 723 281 833 425 833 c 0
 550 833 625 745 625 642 c 0
 625 540 541 476 476 429 c 1
 635 279 l 1xd8
380 364 m 1
 364 352 340 335 321 323 c 1
 261 286 229 239 229 196 c 0
 229 139 289 94 343 94 c 0
 429 94 493 127 556 187 c 1
 380 364 l 1
396 513 m 1
 466 566 502 606 502 642 c 0
 502 695 476 714 425 714 c 0
 358 714 340 666 340 639 c 0xd8
 340 588 354 559 396 513 c 1
EndSplineSet
EndChar

StartChar: plus
Encoding: 43 43 77
Width: 540
VWidth: 0
Flags: W
HStem: 288 118<54 209 332 487>
VStem: 209 123<108 288 406 583>
LayerCount: 2
Fore
SplineSet
209 406 m 1
 209 583 l 1
 332 583 l 5
 332 406 l 5
 487 406 l 1
 487 288 l 1
 332 288 l 5
 332 108 l 5
 209 108 l 1
 209 288 l 1
 54 288 l 1
 54 406 l 1
 209 406 l 1
EndSplineSet
EndChar

StartChar: equal
Encoding: 61 61 78
Width: 540
VWidth: 0
Flags: W
HStem: 190 118<54 487> 385 118<54 487>
LayerCount: 2
Fore
SplineSet
487 308 m 1
 487 190 l 1
 54 190 l 1
 54 308 l 1
 487 308 l 1
487 503 m 5
 487 385 l 5
 54 385 l 5
 54 503 l 5
 487 503 l 5
EndSplineSet
EndChar

StartChar: hyphen
Encoding: 45 45 79
Width: 432
VWidth: 0
Flags: W
HStem: 288 118<108 324>
VStem: 108 216<288 406>
LayerCount: 2
Fore
SplineSet
324 406 m 5
 324 288 l 1
 108 288 l 1
 108 406 l 5
 324 406 l 5
EndSplineSet
EndChar

StartChar: at
Encoding: 64 64 80
Width: 922
VWidth: 0
Flags: W
HStem: -216 75<328.484 411> -15 76<721.502 797.085> -11 119<428.308 548.79> 125 55<650.451 707> 368 119<478.321 606.798> 616 76<479.005 712.779>
VStem: 699 81<412.507 443> 869 70<166.672 463.762>
LayerCount: 2
Fore
SplineSet
757 61 m 1xdf
 740 -15 l 1
 657 -15 626 59 654 180 c 1
 720 180 l 1
 705 114 709 61 757 61 c 1xdf
757 61 m 1
 805 61 846 140 869 238 c 1
 939 238 l 1
 901 74 823 -15 740 -15 c 1
 757 61 l 1
707 125 m 1
 626 125 l 1
 699 443 l 1
 780 443 l 1
 707 125 l 1
633 238 m 0
 649 309 615 368 546 368 c 0
 477 368 417 309 401 238 c 0
 385 167 417 108 486 108 c 0xbf
 555 108 617 167 633 238 c 0
710 238 m 0
 678 101 586 -11 459 -11 c 0
 332 -11 254 101 286 238 c 0
 318 375 447 487 574 487 c 0
 701 487 742 375 710 238 c 0
94 268 m 4
 152 519 388 692 621 692 c 0
 854 692 992 467 939 238 c 1
 869 238 l 1
 917 447 798 616 604 616 c 0
 410 616 213 477 165 268 c 4
 117 59 235 -141 429 -141 c 1
 411 -216 l 1
 178 -216 36 17 94 268 c 4
EndSplineSet
EndChar

StartChar: slash
Encoding: 47 47 81
Width: 459
VWidth: 0
Flags: HW
HStem: 737 20G<306.27 449>
LayerCount: 2
Fore
SplineSet
-9 -107 m 5
 334 837 l 1
 469 837 l 1
 126 -107 l 5
 -9 -107 l 5
EndSplineSet
EndChar

StartChar: backslash
Encoding: 92 92 82
Width: 459
VWidth: 0
Flags: HW
HStem: 737 20G<11 153.73>
LayerCount: 2
Fore
SplineSet
-9 837 m 1
 126 837 l 1
 469 -27 l 5
 334 -27 l 5
 -9 837 l 1
EndSplineSet
EndChar

StartChar: question
Encoding: 63 63 83
Width: 508
VWidth: 0
Flags: W
HStem: -11 156<173.215 280.785> 222 200<165 278> 701 121<112.94 284.777>
VStem: 149 156<13.2149 120.785> 165 113<222 301.722> 341 124<480.094 643.79>
LayerCount: 2
Fore
SplineSet
149 67 m 0xf4
 149 110 184 145 227 145 c 0
 270 145 305 110 305 67 c 0
 305 24 270 -11 227 -11 c 0
 184 -11 149 24 149 67 c 0xf4
341 562 m 4
 341 644 290 701 216 701 c 4
 165 701 113 688 76 655 c 1
 76 789 l 1
 119 811 167 822 216 822 c 0
 353 822 465 699 465 562 c 0
 465 425 353 303 216 303 c 0
 200 303 186 308 186 308 c 1
 147 427 l 1
 147 427 180 422 216 422 c 0
 290 422 341 480 341 562 c 4
165 222 m 5xec
 147 427 l 1
 212 406 l 1
 288 425 l 1
 278 222 l 5
 165 222 l 5xec
EndSplineSet
EndChar

StartChar: greater
Encoding: 62 62 84
Width: 540
VWidth: 0
Flags: W
HStem: 525 20G<54 100.231>
LayerCount: 2
Fore
SplineSet
54 427 m 1
 54 545 l 1
 514 346 l 1
 382 305 l 5
 54 427 l 1
54 146 m 1
 54 264 l 1
 382 387 l 5
 514 346 l 1
 54 146 l 1
EndSplineSet
EndChar

StartChar: less
Encoding: 60 60 85
Width: 540
VWidth: 0
Flags: W
HStem: 526 20G<441 487>
LayerCount: 2
Fore
SplineSet
487 265 m 1
 487 147 l 1
 27 346 l 1
 159 387 l 1
 487 265 l 1
487 546 m 1
 487 428 l 1
 159 305 l 5
 27 346 l 1
 487 546 l 1
EndSplineSet
EndChar

StartChar: bracketleft
Encoding: 91 91 86
Width: 243
VWidth: 0
Flags: W
HStem: -135 81<257.296 319> 676 81<257.296 319>
VStem: 81 238<-135 -54 676 757> 81 119<-27 649>
LayerCount: 2
Fore
SplineSet
81 649 m 1xd0
 81 757 l 1
 319 757 l 1
 319 676 l 1xe0
 81 649 l 1xd0
81 -135 m 1
 81 -27 l 1xd0
 319 -54 l 1
 319 -135 l 1
 81 -135 l 1
81 -135 m 1xe0
 81 757 l 1xe0
 200 735 l 5
 200 -59 l 5xd0
 81 -135 l 1xe0
EndSplineSet
EndChar

StartChar: bracketright
Encoding: 93 93 87
Width: 243
VWidth: 0
Flags: W
HStem: -135 81<-76 -14.2963> 676 81<-76 -14.2963>
VStem: -76 238<-135 -54 676 757> 43 119<-92 681>
LayerCount: 2
Fore
SplineSet
162 -27 m 5xd0
 162 -135 l 1
 -76 -135 l 1
 -76 -54 l 5xe0
 162 -27 l 5xd0
162 757 m 1
 162 649 l 1xd0
 -76 676 l 1
 -76 757 l 1
 162 757 l 1
162 757 m 1xe0
 162 -135 l 1xe0
 43 -92 l 1
 43 681 l 1xd0
 162 757 l 1xe0
EndSplineSet
EndChar

StartChar: asciicircum
Encoding: 94 94 88
Width: 350
VWidth: 0
Flags: W
HStem: 626 212
VStem: 32 286
LayerCount: 2
Fore
SplineSet
138 762 m 5
 175 838 l 1
 318 626 l 1
 227 626 l 5
 138 762 l 5
175 838 m 1
 212 762 l 1
 123 626 l 1
 32 626 l 1
 175 838 l 1
EndSplineSet
EndChar

StartChar: underscore
Encoding: 95 95 89
Width: 540
VWidth: 0
Flags: W
HStem: -178 91<0 541>
LayerCount: 2
Fore
SplineSet
0 -178 m 5
 0 -87 l 5
 541 -87 l 5
 541 -178 l 5
 0 -178 l 5
EndSplineSet
EndChar

StartChar: bar
Encoding: 124 124 90
Width: 286
VWidth: 0
Flags: W
VStem: 81 124<-162 811>
LayerCount: 2
Fore
SplineSet
81 -162 m 1
 81 811 l 1
 205 811 l 1
 205 -162 l 1
 81 -162 l 1
EndSplineSet
EndChar

StartChar: braceleft
Encoding: 123 123 91
Width: 243
VWidth: 0
Flags: W
HStem: -135 113<212.254 276> 270 103<-11 68> 281 81<-11 116> 643 114<212.254 276>
VStem: 81 119<-9.77661 247.363 387.734 630.869>
LayerCount: 2
Fore
SplineSet
81 476 m 5x98
 81 562 l 5
 200 562 l 5
 200 476 l 5
 81 476 l 5x98
200 476 m 5
 200 339 116 281 -11 281 c 5xb8
 -11 373 l 5xd8
 70 373 81 386 81 476 c 5
 200 476 l 5
-11 362 m 5
 116 362 200 283 200 146 c 5
 81 146 l 5
 81 238 68 270 -11 270 c 5xd8
 -11 362 l 5
276 -135 m 5
 139 -135 81 -78 81 59 c 5
 200 59 l 5
 200 -6 213 -22 276 -22 c 5
 276 -135 l 5
81 59 m 5
 81 146 l 5
 200 146 l 5
 200 59 l 5
 81 59 l 5
81 562 m 5
 81 699 139 757 276 757 c 5
 276 643 l 5
 211 643 200 625 200 562 c 5
 81 562 l 5
EndSplineSet
EndChar

StartChar: braceright
Encoding: 125 125 92
Width: 243
VWidth: 0
Flags: W
HStem: -128 114<-32 31.6676> 256 103<175 254> 267 81<127 254> 651 114<-32 31.6676>
VStem: 43 119<-1.8689 242.109 381.637 638.869>
LayerCount: 2
Fore
SplineSet
162 154 m 1x98
 162 67 l 1
 43 67 l 1
 43 154 l 1
 162 154 l 1x98
43 154 m 1
 43 291 127 348 254 348 c 1xb8
 254 256 l 1xd8
 173 256 162 244 162 154 c 1
 43 154 l 1
254 267 m 1
 127 267 43 346 43 483 c 1
 162 483 l 1
 162 391 175 359 254 359 c 1xd8
 254 267 l 1
-32 765 m 1
 105 765 162 707 162 570 c 1
 43 570 l 1
 43 635 31 651 -32 651 c 1
 -32 765 l 1
162 570 m 1
 162 483 l 1
 43 483 l 1
 43 570 l 1
 162 570 l 1
162 67 m 1
 162 -70 105 -128 -32 -128 c 1
 -32 -14 l 1
 33 -14 43 4 43 67 c 1
 162 67 l 1
EndSplineSet
EndChar

StartChar: asciitilde
Encoding: 126 126 93
Width: 540
VWidth: 0
Flags: W
HStem: 234 226
LayerCount: 2
Fore
SplineSet
460 460 m 1
 460 331 l 1
 265 115 276 461 81 234 c 1
 81 362 l 5
 287 578 265 233 460 460 c 1
EndSplineSet
EndChar

StartChar: cedilla
Encoding: 184 184 94
Width: 285
VWidth: 0
Flags: W
HStem: -216 189<97 102>
VStem: 22 188
LayerCount: 2
Fore
SplineSet
97 -27 m 1
 210 -27 l 1
 102 -216 l 1
 22 -216 l 1
 97 -27 l 1
EndSplineSet
EndChar

StartChar: grave
Encoding: 96 96 95
Width: 210
VWidth: 0
Flags: W
HStem: 761 212
VStem: 0 211
LayerCount: 2
Fore
SplineSet
0 973 m 1
 146 973 l 1
 211 761 l 1
 189 761 l 1
 0 973 l 1
EndSplineSet
EndChar

StartChar: exclamdown
Encoding: 161 161 96
Width: 285
VWidth: 0
Flags: W
HStem: 585 156<89.2149 196.785>
VStem: 65 156<609.215 716.785> 76 134<-81 150.875> 92 102<217.125 449>
LayerCount: 2
Fore
SplineSet
221 663 m 0xc0
 221 620 186 585 143 585 c 0
 100 585 65 620 65 663 c 0
 65 706 100 741 143 741 c 0
 186 741 221 706 221 663 c 0xc0
194 449 m 1x90
 210 -81 l 1
 76 -81 l 1xa0
 92 449 l 1
 194 449 l 1x90
EndSplineSet
EndChar

StartChar: cent
Encoding: 162 162 97
Width: 475
VWidth: 0
Flags: W
HStem: -11 119<223.371 392.66> 368 119<223.371 392.66>
VStem: 43 125<163.62 312.38> 254 70<-108 584>
LayerCount: 2
Fore
SplineSet
168 238 m 0
 168 167 218 108 292 108 c 0
 343 108 396 123 433 156 c 1
 433 22 l 1
 390 0 341 -11 292 -11 c 0
 155 -11 43 101 43 238 c 0
 43 375 155 487 292 487 c 0
 341 487 390 476 433 454 c 1
 433 320 l 1
 396 353 343 368 292 368 c 0
 218 368 168 309 168 238 c 0
254 -108 m 5
 254 584 l 5
 324 584 l 5
 324 -108 l 5
 254 -108 l 5
EndSplineSet
EndChar

StartChar: sterling
Encoding: 163 163 98
Width: 475
VWidth: 0
Flags: W
HStem: 0 119<11 476> 357 119<11 308> 703 119<227.062 383.466>
VStem: 81 124<0 678.83>
LayerCount: 2
Fore
SplineSet
11 0 m 1
 11 119 l 5
 476 119 l 5
 476 0 l 1
 11 0 l 1
11 357 m 1
 11 476 l 1
 308 476 l 1
 308 357 l 1
 11 357 l 1
81 0 m 1
 81 611 l 1
 205 611 l 1
 205 0 l 1
 81 0 l 1
297 703 m 1
 297 822 l 1
 384 822 438 762 438 762 c 1
 438 650 l 1
 438 650 386 703 297 703 c 1
297 703 m 1
 229 703 205 679 205 611 c 1
 81 611 l 1
 81 756 176 822 297 822 c 1
 297 703 l 1
EndSplineSet
EndChar

StartChar: currency
Encoding: 164 164 99
Width: 583
VWidth: 0
Flags: W
VStem: 43 125<167.841 308.159> 416 125<167.841 308.159>
LayerCount: 2
Fore
SplineSet
168 238 m 0
 168 167 224 108 292 108 c 0
 360 108 416 167 416 238 c 0
 416 309 360 368 292 368 c 0
 224 368 168 309 168 238 c 0
454 65 m 1
 589 -103 l 1
 449 -103 l 5
 314 65 l 5
 454 65 l 1
270 65 m 1
 135 -103 l 1
 -5 -103 l 1
 130 65 l 1
 270 65 l 1
130 411 m 1
 -5 579 l 1
 135 579 l 1
 270 411 l 1
 130 411 l 1
314 411 m 1
 449 579 l 1
 589 579 l 1
 454 411 l 1
 314 411 l 1
43 238 m 0
 43 375 155 487 292 487 c 0
 429 487 541 375 541 238 c 0
 541 101 429 -11 292 -11 c 0
 155 -11 43 101 43 238 c 0
EndSplineSet
EndChar

StartChar: yen
Encoding: 165 165 100
Width: 621
VWidth: 0
Flags: W
HStem: 0 21G<249 372> 214 70<108 513> 322 71<108 513> 710 20G<11 156.031 465.847 611>
VStem: 249 123<0 403>
LayerCount: 2
Fore
SplineSet
249 0 m 1
 249 403 l 1
 372 403 l 1
 372 0 l 1
 249 0 l 1
310 185 m 1
 11 730 l 1
 146 730 l 1
 310 403 l 1
 476 730 l 1
 611 730 l 1
 310 185 l 1
108 214 m 1
 108 284 l 1
 513 284 l 1
 513 214 l 1
 108 214 l 1
108 322 m 1
 108 393 l 5
 513 393 l 5
 513 322 l 1
 108 322 l 1
EndSplineSet
EndChar

StartChar: brokenbar
Encoding: 166 166 101
Width: 286
VWidth: 0
Flags: W
VStem: 81 124<-162 216 433 811>
LayerCount: 2
Fore
SplineSet
205 433 m 1
 81 433 l 1
 81 811 l 1
 205 811 l 1
 205 433 l 1
205 216 m 1
 205 -162 l 1
 81 -162 l 1
 81 216 l 1
 205 216 l 1
EndSplineSet
EndChar

StartChar: section
Encoding: 167 167 102
Width: 443
VWidth: 0
Flags: W
HStem: -32 117<155.304 288.205> 194 117<186.816 282.995> 648 116<175.754 305.255>
VStem: 44 125<328.11 412.122 564.988 638.267> 298 124<96.9344 178.455 319.13 415.736>
LayerCount: 2
Fore
SplineSet
240 311 m 0
 292 311 298 340 298 366 c 0
 298 405 284 425 233 425 c 0
 188 425 169 393 169 371 c 0
 169 346 192 311 240 311 c 0
373 258 m 1
 403 228 422 187 422 136 c 0
 422 27 341 -32 227 -32 c 1
 84 -28 28 61 21 71 c 0
 16 77 l 1
 92 171 l 1
 108 148 l 1
 108 148 157 85 222 85 c 0
 285 85 298 113 298 132 c 0
 298 167 275 194 220 194 c 0
 115 194 44 277 44 378 c 1
 45 421 67 456 95 478 c 1
 59 503 43 550 43 590 c 0
 43 699 119 764 238 764 c 0
 335 764 398 704 404 699 c 0
 410 694 l 1
 363 576 l 1
 340 600 l 0
 340 600 296 648 233 648 c 0
 184 648 169 624 169 605 c 0
 169 581 189 553 243 545 c 0
 330 532 421 482 421 358 c 0
 418 314 400 280 373 258 c 1
EndSplineSet
EndChar

StartChar: dieresis
Encoding: 168 168 103
Width: 484
VWidth: 0
Flags: W
HStem: 861 156<78.2149 185.785 299.215 406.309>
VStem: 54 156<885.215 992.785> 275 155<885.215 992.785>
LayerCount: 2
Fore
SplineSet
275 939 m 0
 275 982 310 1017 353 1017 c 0
 396 1017 430 982 430 939 c 0
 430 896 396 861 353 861 c 0
 310 861 275 896 275 939 c 0
54 939 m 0
 54 982 89 1017 132 1017 c 0
 175 1017 210 982 210 939 c 0
 210 896 175 861 132 861 c 0
 89 861 54 896 54 939 c 0
EndSplineSet
EndChar

StartChar: copyright
Encoding: 169 169 104
Width: 839
VWidth: 0
Flags: W
HStem: -22 103<315.189 524.771> 167 83<366.798 515.062> 481 84<364.498 515.062> 650 103<312.027 527.934>
VStem: 32 109<256.925 474.957> 233 86<296.651 435.168> 699 108<256.925 474.957>
LayerCount: 2
Fore
SplineSet
319 366 m 0
 319 300 367 250 432 250 c 0
 468 250 503 261 530 281 c 0
 547 295 l 1
 547 200 l 1
 542 197 l 0
 509 178 471 167 432 167 c 0
 322 167 233 256 233 366 c 0
 233 476 322 565 432 565 c 0
 471 565 509 553 542 534 c 0
 547 531 l 1
 547 436 l 1
 530 450 l 0
 503 470 468 481 432 481 c 0
 367 481 319 432 319 366 c 0
141 366 m 0
 141 206 263 81 420 81 c 0
 577 81 699 206 699 366 c 0
 699 526 577 650 420 650 c 0
 263 650 141 526 141 366 c 0
32 366 m 0
 32 580 206 753 420 753 c 0
 634 753 807 580 807 366 c 0
 807 152 634 -22 420 -22 c 0
 206 -22 32 152 32 366 c 0
EndSplineSet
EndChar

StartChar: registered
Encoding: 174 174 105
Width: 839
VWidth: 0
Flags: W
HStem: -22 103<315.189 524.771> 297 81<372 422> 477 81<372 491.913> 650 103<312.027 527.934>
VStem: 32 109<256.925 474.957> 288 84<172 297 378 477> 500 84<385.468 468.008> 699 108<256.925 474.957>
LayerCount: 2
Fore
SplineSet
32 366 m 0
 32 580 206 753 420 753 c 0
 634 753 807 580 807 366 c 0
 807 152 634 -22 420 -22 c 0
 206 -22 32 152 32 366 c 0
141 366 m 0
 141 206 263 81 420 81 c 0
 577 81 699 206 699 366 c 0
 699 526 577 650 420 650 c 0
 263 650 141 526 141 366 c 0
288 172 m 1
 288 558 l 1
 351 558 l 1
 372 558 l 1
 426 558 l 1
 437 558 l 1
 448 558 l 1
 516 555 584 521 584 427 c 0
 584 361 551 326 507 309 c 1
 593 172 l 1
 500 172 l 1
 422 297 l 1
 372 297 l 1
 372 172 l 1
 288 172 l 1
372 477 m 1
 372 378 l 1
 426 378 l 1
 437 378 l 2
 480 378 500 392 500 427 c 0
 500 462 480 477 437 477 c 2
 426 477 l 1
 372 477 l 1
EndSplineSet
EndChar

StartChar: ordfeminine
Encoding: 170 170 106
Width: 359
VWidth: 0
Flags: W
HStem: 557 59<129.538 183> 673 57<131.887 227> 734 21G<94 112> 768 59<108.625 222.221>
VStem: 70 59<618.595 668.666> 227 62<562 575 627.712 673 730 760.938>
LayerCount: 2
Fore
SplineSet
289 730 m 1
 289 719 l 1
 289 562 l 1
 227 562 l 1
 227 575 l 1
 215 566 200 560 183 558 c 1
 183 557 l 1
 172 557 l 1
 162 557 l 1
 108 560 74 587 70 633 c 1
 70 643 l 1
 70 654 l 1
 75 701 113 727 167 730 c 1
 178 730 l 1
 189 730 l 1
 227 730 l 1
 227 750 211 768 175 768 c 0
 151 768 128 763 112 749 c 2
 94 734 l 1
 94 807 l 1
 100 810 l 2
 120 820 142 826 164 827 c 1
 175 827 l 1
 186 827 l 1
 241 824 283 798 288 741 c 1
 289 741 l 1
 289 730 l 1
227 671 m 2
 227 673 l 1
 189 673 l 1
 178 673 l 2
 147 673 129 660 129 643 c 2
 129 626 141 616 172 616 c 0
 200 616 227 638 227 671 c 2
EndSplineSet
EndChar

StartChar: guillemotleft
Encoding: 171 171 107
Width: 540
VWidth: 0
Flags: W
HStem: 526 20G<265.5 292 460.5 487>
LayerCount: 2
Fore
SplineSet
487 222 m 5
 487 147 l 5
 222 346 l 5
 297 367 l 5
 487 222 l 5
487 546 m 5
 487 472 l 5
 297 326 l 5
 222 346 l 5
 487 546 l 5
292 222 m 5
 292 147 l 5
 27 346 l 5
 103 367 l 5
 292 222 l 5
292 546 m 5
 292 472 l 5
 103 326 l 5
 27 346 l 5
 292 546 l 5
EndSplineSet
EndChar

StartChar: logicalnot
Encoding: 172 172 108
Width: 702
VWidth: 0
Flags: W
HStem: 309 75<54 649>
VStem: 573 76<147 309>
LayerCount: 2
Fore
SplineSet
649 309 m 1
 649 147 l 1
 573 147 l 1
 573 309 l 1
 649 309 l 1
649 384 m 1
 649 309 l 1
 54 309 l 1
 54 384 l 1
 649 384 l 1
EndSplineSet
EndChar

StartChar: uni00AD
Encoding: 173 173 109
Width: 540
VWidth: 0
Flags: W
HStem: 309 75<108 433>
VStem: 108 325<309 384>
LayerCount: 2
Fore
SplineSet
433 384 m 5
 433 309 l 5
 108 309 l 1
 108 384 l 1
 433 384 l 5
EndSplineSet
EndChar

StartChar: macron
Encoding: 175 175 110
Width: 540
VWidth: 0
Flags: W
HStem: 865 75<54 487>
LayerCount: 2
Fore
SplineSet
487 940 m 5
 487 865 l 5
 54 865 l 5
 54 940 l 5
 487 940 l 5
EndSplineSet
EndChar

StartChar: degree
Encoding: 176 176 111
Width: 583
VWidth: 0
Flags: W
HStem: 622 59<245.807 338.193> 811 60<245.807 338.193>
VStem: 168 61<697.166 794.912> 355 61<697.166 794.912>
LayerCount: 2
Fore
SplineSet
229 746 m 0
 229 710 257 681 292 681 c 0
 327 681 355 710 355 746 c 0
 355 782 327 811 292 811 c 0
 257 811 229 782 229 746 c 0
168 746 m 0
 168 815 223 871 292 871 c 0
 361 871 416 815 416 746 c 0
 416 677 361 622 292 622 c 0
 223 622 168 677 168 746 c 0
EndSplineSet
EndChar

StartChar: plusminus
Encoding: 177 177 112
Width: 540
VWidth: 0
Flags: W
HStem: 0 96<54 487> 320 86<54 220 321 487>
VStem: 220 101<162 320 406 583>
LayerCount: 2
Fore
SplineSet
487 96 m 1
 487 0 l 1
 54 0 l 1
 54 96 l 1
 487 96 l 1
220 406 m 1
 220 583 l 1
 321 583 l 1
 321 406 l 1
 487 406 l 1
 487 320 l 1
 321 320 l 1
 321 162 l 1
 220 162 l 1
 220 320 l 1
 54 320 l 1
 54 406 l 1
 220 406 l 1
EndSplineSet
EndChar

StartChar: paragraph
Encoding: 182 182 113
Width: 589
VWidth: 0
Flags: W
HStem: 0 21G<324 395 465 535> 314 75<244.446 324> 735 76<244.446 503>
VStem: 76 81<476.867 647.194> 324 71<0 314 389 735> 465 70<0 735> 465 38<735 811>
LayerCount: 2
Fore
SplineSet
324 811 m 1xfa
 503 811 l 1
 503 735 l 1
 324 735 l 1
 324 811 l 1xfa
324 0 m 1
 324 811 l 1
 395 811 l 1
 395 0 l 1
 324 0 l 1
465 0 m 1xfc
 465 811 l 1xfa
 535 811 l 1
 535 0 l 1
 465 0 l 1xfc
324 389 m 1
 324 314 l 1
 187 314 76 425 76 562 c 0
 76 699 187 811 324 811 c 1
 324 735 l 1
 229 735 157 655 157 562 c 0
 157 469 229 389 324 389 c 1
EndSplineSet
EndChar

StartChar: periodcentered
Encoding: 183 183 114
Width: 263
VWidth: 0
Flags: W
HStem: 249 134<82.4065 181.594>
VStem: 65 134<266.406 365.594>
LayerCount: 2
Fore
SplineSet
65 316 m 0
 65 353 95 383 132 383 c 0
 169 383 199 353 199 316 c 0
 199 279 169 249 132 249 c 0
 95 249 65 279 65 316 c 0
EndSplineSet
EndChar

StartChar: guillemotright
Encoding: 187 187 115
Width: 540
VWidth: 0
Flags: W
HStem: 526 20G<27 53.6332 222 248.633>
LayerCount: 2
Fore
SplineSet
27 472 m 5
 27 546 l 5
 292 347 l 5
 216 327 l 5
 27 472 l 5
27 147 m 5
 27 222 l 5
 216 368 l 5
 292 347 l 5
 27 147 l 5
222 472 m 5
 222 546 l 5
 487 347 l 5
 411 327 l 5
 222 472 l 5
222 147 m 5
 222 222 l 5
 411 368 l 5
 487 347 l 5
 222 147 l 5
EndSplineSet
EndChar

StartChar: ordmasculine
Encoding: 186 186 116
Width: 410
VWidth: 0
Flags: W
HStem: 595 38<153.295 256.984> 806 38<153.295 256.984>
VStem: 81 41<662.621 775.7> 289 41<662.621 775.7>
LayerCount: 2
Fore
SplineSet
122 719 m 4
 122 672 157 633 205 633 c 4
 253 633 289 672 289 719 c 4
 289 766 253 806 205 806 c 4
 157 806 122 766 122 719 c 4
81 719 m 4
 81 788 136 844 205 844 c 4
 274 844 330 788 330 719 c 4
 330 650 274 595 205 595 c 4
 136 595 81 650 81 719 c 4
EndSplineSet
EndChar

StartChar: questiondown
Encoding: 191 191 117
Width: 508
VWidth: 0
Flags: HW
HStem: -92 100<248.519 429.981> 308 222<274 364> 607 134<264.406 363.594>
VStem: 76 102<78.6032 231.197> 247 134<624.406 723.594> 274 90<446.368 530>
LayerCount: 2
Fore
SplineSet
381 464 m 4xf8
 381 427 351 397 314 397 c 4
 277 397 247 427 247 464 c 4
 247 501 277 531 314 531 c 4
 351 531 381 501 381 464 c 4xf8
178 -53 m 4
 178 -135 240 -202 324 -202 c 4
 375 -202 428 -190 465 -157 c 5
 465 -269 l 5
 422 -291 373 -302 324 -302 c 4
 187 -302 76 -190 76 -53 c 4
 76 84 187 196 324 196 c 4
 340 196 355 191 355 191 c 5
 383 93 l 5
 383 93 360 98 324 98 c 4
 250 98 178 29 178 -53 c 4
364 320 m 5xf4
 383 93 l 5
 329 114 l 5
 263 95 l 5
 274 320 l 5
 364 320 l 5xf4
EndSplineSet
EndChar

StartChar: acute
Encoding: 180 180 118
Width: 189
VWidth: 0
Flags: W
HStem: 761 212
VStem: 0 189
LayerCount: 2
Fore
SplineSet
189 973 m 1
 0 761 l 1
 65 973 l 1
 189 973 l 1
EndSplineSet
EndChar

StartChar: mu
Encoding: 181 181 119
Width: 600
VWidth: 0
Flags: W
HStem: -32 119<208.865 353.753>
VStem: 63 124<-227 -10 108.391 497> 416 125<-22 21 153.309 497>
LayerCount: 2
Fore
SplineSet
541 497 m 1
 541 -22 l 1
 416 -22 l 1
 416 21 l 1
 383 -11 339 -32 281 -32 c 0
 244 -32 213 -24 187 -10 c 1
 187 -227 l 1
 63 -227 l 1
 63 497 l 1
 187 497 l 1
 187 127 l 1
 211 102 242 87 281 87 c 0
 362 87 416 154 416 238 c 0
 416 497 l 1
 541 497 l 1
EndSplineSet
EndChar

StartChar: igrave
Encoding: 236 236 157
Width: 296
VWidth: 0
Flags: W
HStem: 0 21G<81 204> 616 212
VStem: -47 211 81 123<0 476>
LayerCount: 2
Fore
SplineSet
81 0 m 1xd0
 81 476 l 1
 204 476 l 1
 204 0 l 1
 81 0 l 1xd0
EndSplineSet
Refer: 95 96 N 1 0 0 1 -47 -145 2
EndChar

StartChar: iacute
Encoding: 237 237 158
Width: 285
VWidth: 0
Flags: W
HStem: 0 21G<81 204> 616 212
VStem: 81 123<0 476> 132 189
LayerCount: 2
Fore
SplineSet
81 0 m 1xe0
 81 476 l 1
 204 476 l 1
 204 0 l 1
 81 0 l 1xe0
EndSplineSet
Refer: 118 180 S 1 0 0 1 132 -145 2
EndChar

StartChar: icircumflex
Encoding: 238 238 159
Width: 285
VWidth: 0
Flags: W
HStem: 0 21G<81 204> 616 212
VStem: 0 286 81 123<0 476>
LayerCount: 2
Fore
SplineSet
81 0 m 1xd0
 81 476 l 1
 204 476 l 1
 204 0 l 1
 81 0 l 1xd0
EndSplineSet
Refer: 88 94 N 1 0 0 1 -32 -10 2
EndChar

StartChar: idieresis
Encoding: 239 239 160
Width: 285
VWidth: 0
Flags: W
HStem: 0 21G<81 204> 584 156<-20.7851 86.7851 200.215 307.309>
VStem: -45 156<608.215 715.785> 81 123<0 476> 176 155<608.215 715.785>
LayerCount: 2
Fore
SplineSet
81 0 m 1xd0
 81 476 l 1
 204 476 l 1
 204 0 l 1
 81 0 l 1xd0
EndSplineSet
Refer: 103 168 S 1 0 0 1 -99 -277 2
EndChar

StartChar: thorn
Encoding: 254 254 173
Width: 665
VWidth: 0
Flags: W
HStem: -11 98<265.247 434.624> 389 98<265.247 434.624>
VStem: 81 103<-205 58 163.459 312.541 418 811> 519 103<163.803 312.197>
LayerCount: 2
Fore
SplineSet
184 -205 m 1
 81 -205 l 1
 81 811 l 1
 184 811 l 1
 184 418 l 1
 221 460 277 487 351 487 c 0
 505 487 622 375 622 238 c 0
 622 101 505 -11 351 -11 c 0
 277 -11 221 16 184 58 c 1
 184 -205 l 1
351 389 m 0
 255 389 184 320 184 238 c 0
 184 156 255 87 351 87 c 0
 447 87 519 156 519 238 c 0
 519 320 447 389 351 389 c 0
EndSplineSet
EndChar

StartChar: AE
Encoding: 198 198 174
Width: 973
VWidth: 0
Flags: W
HStem: 0 119<632 995> 195 119<324 503> 314 119<632 887> 611 119<492 503 632 995>
VStem: 503 129<119 195 433 611>
LayerCount: 2
Fore
SplineSet
492 611 m 1xd8
 324 314 l 1
 503 314 l 1
 503 611 l 1
 492 611 l 1xd8
503 195 m 1
 259 195 l 1xd8
 148 0 l 1
 15 0 l 1
 409 722 l 1
 409 730 l 1
 413 730 l 1
 416 736 l 1
 423 730 l 1
 503 730 l 1
 632 730 l 1
 995 730 l 1
 995 611 l 1
 632 611 l 1
 632 433 l 1
 887 433 l 1
 887 314 l 1
 632 314 l 1xb8
 632 119 l 1
 995 119 l 1
 995 0 l 1
 632 0 l 1
 587 0 l 1
 503 0 l 1
 503 195 l 1
EndSplineSet
EndChar

StartChar: Oslash
Encoding: 216 216 175
Width: 839
VWidth: 0
Flags: W
HStem: -11 125<388.536 524.512> 618 124<324.942 469.023>
VStem: 43 130<269.707 469.558> 677 119<262.402 462.26>
LayerCount: 2
Fore
SplineSet
173 366 m 0
 173 226 294 114 430 114 c 0
 566 114 677 226 677 366 c 0
 677 506 556 618 420 618 c 0
 284 618 173 506 173 366 c 0
270 -108 m 1
 519 811 l 1
 579 811 l 1
 330 -108 l 1
 270 -108 l 1
43 366 m 0
 43 574 212 742 420 742 c 0
 628 742 796 574 796 366 c 0
 796 158 628 -11 420 -11 c 0
 212 -11 43 158 43 366 c 0
EndSplineSet
EndChar

StartChar: oslash
Encoding: 248 248 176
Width: 583
VWidth: 0
Flags: W
HStem: -11 98<272.821 366.01> 389 98<217.99 306.125>
VStem: 43 103<159.33 316.67> 438 103<159.33 316.67>
LayerCount: 2
Fore
SplineSet
146 238 m 0
 146 156 208 87 292 87 c 0
 376 87 438 156 438 238 c 0
 438 320 376 389 292 389 c 0
 208 389 146 320 146 238 c 0
43 238 m 0
 43 375 155 487 292 487 c 0
 429 487 541 375 541 238 c 0
 541 101 429 -11 292 -11 c 0
 155 -11 43 101 43 238 c 0
162 -108 m 1
 357 584 l 1
 416 584 l 1
 222 -108 l 1
 162 -108 l 1
EndSplineSet
EndChar

StartChar: Thorn
Encoding: 222 222 177
Width: 596
VWidth: 0
Flags: W
HStem: 0 21G<81 184> 143 91<184 391.137> 519 90<184 391.137> 710 20G<81 184>
VStem: 81 103<0 143 234 519 609 730> 451 103<293.708 458.439>
LayerCount: 2
Fore
SplineSet
184 0 m 1
 81 0 l 1
 81 730 l 1
 184 730 l 1
 184 609 l 1
 291 609 l 1
 303 609 l 1
 315 609 l 1
 463 604 554 512 554 376 c 0
 554 240 463 148 315 143 c 1
 303 143 l 1
 291 143 l 1
 184 143 l 1
 184 0 l 1
291 519 m 1
 184 519 l 1
 184 234 l 1
 291 234 l 1
 303 234 l 2
 397 234 451 285 451 376 c 0
 451 467 397 519 303 519 c 2
 291 519 l 1
EndSplineSet
EndChar

StartChar: divide
Encoding: 247 247 178
Width: 540
VWidth: 0
Flags: W
HStem: 80 134<220.406 319.594> 298 97<54 487> 479 134<220.406 319.594>
VStem: 203 134<97.4065 196.594 496.406 595.594>
CounterMasks: 1 e0
LayerCount: 2
Fore
SplineSet
203 546 m 0
 203 583 233 613 270 613 c 0
 307 613 337 583 337 546 c 0
 337 509 307 479 270 479 c 0
 233 479 203 509 203 546 c 0
203 147 m 0
 203 184 233 214 270 214 c 0
 307 214 337 184 337 147 c 0
 337 110 307 80 270 80 c 0
 233 80 203 110 203 147 c 0
54 395 m 1
 487 395 l 1
 487 298 l 1
 54 298 l 1
 54 395 l 1
EndSplineSet
EndChar

StartChar: multiply
Encoding: 215 215 179
Width: 620
VWidth: 0
Flags: W
LayerCount: 2
Fore
SplineSet
81 584 m 1
 204 584 l 1
 540 162 l 1
 416 162 l 1
 81 584 l 1
81 162 m 1
 416 584 l 1
 540 584 l 1
 204 162 l 5
 81 162 l 1
EndSplineSet
EndChar

StartChar: ae
Encoding: 230 230 180
Width: 1072
VWidth: 0
Flags: W
HStem: -22 119<576.324 761.162> -21 129<170.854 330.497> 200 114<180.351 370 526 787> 368 129<568.748 747.612> 379 118<150.676 343.152>
VStem: 43 119<120 182.473>
LayerCount: 2
Fore
SplineSet
269 -21 m 0x64
 81 -21 43 91 43 159 c 1
 50 260 128 310 258 314 c 1
 370 314 l 1
 369 347 336 379 259 379 c 0
 207 379 158 369 127 342 c 0
 92 310 l 1
 92 456 l 1
 103 462 l 0
 148 485 187 495 252 497 c 1
 267 497 l 2x6c
 355 494 423 467 455 411 c 1
 506 465 577 497 661 497 c 0
 820 497 930 380 930 237 c 0
 930 228 929 219 929 219 c 0
 927 200 l 1
 509 200 l 1
 527 142 586 97 661 97 c 0
 718 97 776 116 809 152 c 1
 827 172 l 1
 895 76 l 1
 881 63 l 0
 825 11 744 -22 661 -22 c 0xb4
 570 -22 492 18 442 79 c 1
 406 24 347 -21 269 -21 c 0x64
265 200 m 0
 197 200 162 178 162 152 c 0
 162 125 186 108 254 108 c 0
 315 108 370 143 370 196 c 0
 370 200 l 1
 265 200 l 0
787 314 m 1
 763 346 720 368 661 368 c 0x34
 602 368 552 345 526 314 c 1
 787 314 l 1
EndSplineSet
EndChar

StartChar: Eth
Encoding: 208 208 181
Width: 812
VWidth: 0
Flags: W
HStem: 0 124<208 463.127> 308 108<0 81 208 442> 606 124<208 463.127>
VStem: 81 127<124 308 416 606> 639 130<274.266 457.323>
LayerCount: 2
Fore
SplineSet
442 308 m 1
 208 308 l 1
 208 124 l 1
 336 124 l 0
 509 124 639 226 639 366 c 0
 639 505 509 606 336 606 c 0
 208 606 l 1
 208 416 l 1
 442 416 l 1
 442 308 l 1
81 0 m 1
 81 308 l 1
 0 308 l 1
 0 416 l 1
 81 416 l 1
 81 730 l 1
 348 730 l 1
 590 725 769 571 769 366 c 0
 769 161 590 5 348 0 c 1
 81 0 l 1
EndSplineSet
EndChar

StartChar: eth
Encoding: 240 240 182
Width: 708
VWidth: 0
Flags: W
HStem: -11 119<242.482 422.548> 368 119<242.482 423.309>
VStem: 43 125<175.072 300.928> 499 128<219 301.529>
LayerCount: 2
Fore
SplineSet
671 582 m 1
 555 568 l 1
 597 495 627 404 627 291 c 0
 627 104 503 -11 332 -11 c 0
 165 -11 43 100 43 238 c 0
 43 376 165 487 332 487 c 0
 386 487 432 474 469 453 c 1
 453 489 433 522 410 552 c 1
 151 523 l 1
 151 619 l 1
 328 639 l 1
 231 726 136 770 136 770 c 0
 54 811 l 1
 276 811 l 1
 281 809 l 0
 283 808 391 762 488 657 c 1
 671 679 l 1
 671 582 l 1
497 219 m 1
 495 219 l 1
 499 239 l 1
 498 309 427 368 332 368 c 0
 237 368 168 307 168 238 c 0
 168 169 237 108 332 108 c 0
 419 108 485 159 497 219 c 1
EndSplineSet
EndChar

